<?xml version="1.0" encoding="UTF-8"?>
<svg id="Layer_1" data-name="Layer 1" xmlns="http://www.w3.org/2000/svg" viewBox="0 0 359.72 108">
  <path d="M250.08,53.43c-.21-2.01-1.38-4.85-.48-5.87,3.52-4,7.41-7.81,11.71-10.94,4.18-3.05,6.04-7.68,2.74-10.28-1.59-1.25-4.15-1.63-6.29-1.68-1.01-.02-2.25,1.53-2.99,2.64-.23,.34,.82,1.55,1.29,2.36,1.05-.75,2.1-1.51,3.14-2.26,.38,.07,.76,.13,1.15,.2-.55,1.38-1.21,3.97-1.64,3.94-2.23-.19-5.38-.37-6.4-1.82-2.52-3.6-.05-8.42,4.19-9.52,.58-.15,1.49-.41,1.59-.79,.93-3.6,3.8-5.18,6.66-4.02,1.7,.69,2.32,4.08,3.22,5.85,1.69,.53,4.78,.67,5.22,1.82,.64,1.69,.01,4.63-1.21,6.09-2.01,2.4-3.39,3.9-1.08,7.14,1.74,2.44-.96,4.75-4.5,4.06q-5.71-1.11-5.98,5.2c8.81-2.23,14.55,3.24,20.23,8.38,3.01,2.73,6.27,4.06,9.96,2.95,1.38-.42,2.38-2.77,3.07-4.44,.26-.61-.9-2.6-1.34-2.57-1.52,.09-3,.78-4.5,1.24,.05,.44,.11,.88,.16,1.32,.97,.37,1.94,.74,2.94,1.12-.04,.28,0,.76-.14,.81-1.38,.51-3.1,1.67-4.11,1.23-1.17-.51-2.69-2.83-2.35-3.67,.86-2.11,2.29-4.69,4.19-5.54,4.12-1.85,7.18,.34,7.75,4.78,.14,1.13,.02,2.29,.02,3.44,.51,.22,1.01,.43,1.52,.65,1.34-3.17,2.81-6.29,3.98-9.52,1.68-4.65,2.99-9.21,8.1-11.8,4.54-2.3,8.98-2.85,12.38,.54,2.4,2.39,3.1,6.47,4.61,9.9,2.81-1.19,6.81-3.47,11.11-4.59,9.36-2.45,19.14,8.3,16.65,17.65-.5,1.89,.46,4.16,.75,6.26,.43-.05,.86-.1,1.29-.15-.09-1.31-.18-2.62-.28-4.05q3.81,1.19,2.52,8.28c-4.26-.31-8.11,.11-8.17,5.84,0,.64-.76,1.74-1.31,1.84-5.99,1.05-4.39,6.58-5.94,10.17-.27,.64,.85,2.55,1.72,2.89,4.31,1.69,5.3,4.6,3.62,9.11-1.15-.08-2.48-.18-4.07-.29-.24,1.62-.45,3.01-.58,3.95-2.85,.43-5.36,.8-9.35,1.4-1.79-1.27-2.1-1.17-2.85,2.33-1.53-1.19-3.17-2.47-5.45-4.25-.38,2.2-.58,3.37-.64,3.71-3.73-.91-7.34-1.78-10.79-2.62-1.46,2.6-2.48,4.41-3.49,6.22-.18-.06-.37-.12-.55-.18,.28-1.54,.56-3.09,.97-5.4-4.71,0-9.09-.04-13.46,0-15.18,.14-30.36,.34-45.54,.47-12.67,.1-25.34,.23-38.01,.15-7.93-.05-15.86-.69-23.79-.68-8.43,.01-16.86,.73-25.29,.7-10.58-.04-21.16-.65-31.74-.74-2.3-.02-4.61,1.15-6.48,1.65-3.59-.43-7.14-1.08-10.71-1.22-6.61-.27-13.24-.42-19.86-.28-2.88,.06-5.74,.94-9.04,1.52-.49-.22-1.84-1.36-3.21-1.39-10.29-.25-20.58-.22-30.87-.39-7.08-.12-14.16-.55-21.24-.58-4.6-.02-9.23,.73-13.8,.48-1.19-.07-2.24-2.63-3.35-4.05,.37-.39,.75-.78,1.12-1.18-1.22-.29-3.15-.21-3.53-.93-.84-1.6-1.53-5.09-1.19-5.24,7.06-2.99,2.33-9.67,5.57-14.17-2.37-.33-3.81-.53-5.24-.72-.08-7.75-.29-7.97-8.2-7.99-2.4,0-4.49-.45-4.17-3.53,.29-2.72-.98-6.69,3.95-6.36,4.11,.28,8.19,1.01,12.29,1.54,1.36,.17,2.72,.32,4.29-.38-2.57-1.87-5.87-3.26-7.52-5.74-1.76-2.65-3.62-7.24-2.46-9.35,1.84-3.35,5.83-6.77,9.49-7.58,4.89-1.08,10.32,.31,15.85,.66,0-.01,.19-.8,.34-1.59,.51-2.61,.69-7.34,1.58-7.47,4.37-.67,9.26-1.13,13.35,.21,8.01,2.62,7.47,10.58,8.79,17.16,.31,1.57,.48,3.16,.9,6.08,2.99-3.02,5.06-5.47,7.53-7.44,1.09-.87,3.74-1.54,4.32-.95,1.26,1.29,1.64,3.43,2.47,5.42-2.47-.34-4.04-.55-5.62-.77-.12,1.58-.24,3.16-.36,4.9,4.21,1.02,6.62-.88,8.89-3.52,5.39-6.28,17.81-8.48,24.77-4.5,3.17,1.81,6.31,3.68,8.6,6.39-.69-3.55-1.98-5.26-11.53-12.63-3.38,.51-5.75,.88-8.12,1.24,.23-1.99,.47-3.98,.63-5.37-2.26-1.03-4.9-2.24-7.55-3.45,1.53-1.71,3.06-3.42,4.81-5.39-1.85-2.12-6.16-4.23-2.56-8.39,3.95-4.56,6.57-.08,9.68,2.14,.57-1.33,.88-2.45,1.48-3.37,1.96-2.99,4.63-3.01,6.79-.13,3.38,4.51,3.86,6.94,2.49,13.83-1.95-.14-3.97-.29-5.98-.43,.04-.46,.09-.92,.13-1.38,1.12,.19,2.24,.39,3.78,.65,0-1.23,.35-3.03-.06-3.22-2.14-1.02-4.49-2.23-6.75-2.19-1.53,.03-4.16,1.88-4.28,3.12-.2,1.96,.76,4.64,2.18,6.04,3.13,3.08,6.95,5.43,10.3,8.3,1.73,1.48,3.26,3.3,4.51,5.22,1.11,1.7,1.7,3.74,3.39,5.65,.18-2.76,.36-5.51,.56-8.64-5.35,.29-6.1-2.22-4.54-6.16,.18-.46,.56-1.1,.39-1.41-2.59-4.74-2.19-8.5,2.61-9.57-1.01-2.97-2.76-5.37-2.25-7.1,1.62-5.44,5.14,.51,6.75-1.57,1.8-2.29,3.6-4.59,5.4-6.88,1.95,2.72,3.9,5.44,5.85,8.17-.29,.32-.57,.65-.86,.97,1.13,0,2.31-.23,3.37,.05,2.42,.62,3.53,1.92,1.54,4.26-1.68,1.97-3.33,3.96-4.98,5.93-.39-.29-.87-.49-.85-.64,.48-3.57,.27-6.84-4.11-7.67-3.11-.59-7,2.76-7.26,6.8-.22,3.35,.6,6.78,1.01,10.16,.29,2.38,.69,4.74,.88,6.08,6.05-6.78,12.63-13.63,18.56-21,3.26-4.05,6.31-7.96,11.57-9.2,2.83-.67,5.74-.97,8.79-1.47-1.05-2.53-2.26-4.82-2.91-7.27-.36-1.37,.03-3.05,.5-4.45,.14-.42,2.2-.79,2.48-.45,.92,1.14,1.48,2.58,2.06,3.96,.24,.56,.18,1.25,.18,1.24,4.67,1.62,8.85,3.07,13.48,4.68-.74-6.96,.23-8.41,5.34-9.27,7.61-1.29,7.76-1.17,10.1,8.46,2.28-3.38,4.94-4.83,8.8-1.03,0-1.95-.1-2.88,.03-3.77,.18-1.24,.53-2.46,.81-3.69,1.13,.84,3.07,1.55,3.22,2.54,.44,2.82,.15,5.76,.15,7.74,5.05,2.29,10.53,3.81,14.78,6.98,4.25,3.18,7.28,8,11.6,12.99,0-3.04-.29-5.42,.1-7.68,.25-1.43,1.24-3.16,2.43-3.83,.71-.4,2.76,.7,3.63,1.65,2.17,2.36,3.7,4.34,7.16,1.21,1.66-1.51,4.28-.29,3.97,2.91-.19,1.94-.56,3.87-.9,6.16,1.74,.31,3.26,.59,6.48,1.18-2.35,2.64-4.02,4.53-5.91,6.65,.56,.46,1.17,1.25,1.97,1.57,2.65,1.07,2.3,2.41,.52,3.96-3.56,3.11-2.96,6.41-.13,9.46,1.64,1.77,.97,6.58,5.43,4.75-.91-1.9-1.82-3.8-2.73-5.7,.73-.25,1.75-.28,2.14-.79,1.8-2.34,3.43-4.82,5.44-7.69-1.17,.09-3.39-.29-3.8,.4-1.52,2.56-2.45,5.48-3.61,8.26Zm45.8,11.75c-2.53,.52-5.07,1.04-9.1,1.86,1.91,1.26,2.89,2.25,4.05,2.57,1.4,.38,2.95,.22,4.44,.22,11.32,.01,22.65,0,33.97,0,.17-.51,.33-1.02,.5-1.53-1.34-.65-2.66-1.79-4.03-1.86-3.81-.21-7.65,.22-11.46,.03-6.18-.32-12.34-.93-18.49-1.41,5.19-.57,10.37-1.14,15.56-1.71-3.92-.91-7.9-1.13-11.84-.79-1.26,.11-2.4,1.7-3.59,2.61Zm-220.85,9.69c.01,.33,.02,.67,.03,1-6.75,.65-13.49,1.61-20.26,1.87-8.91,.34-17.83,.11-26.75,.15-7.15,.04-6.92,.04-6.2,7.01,.47,4.54,3.75,3.68,6.25,3.67,15.09-.04,30.18-.48,45.27-.46,26.38,.05,52.76,.31,79.13,.55,12.6,.12,25.2,.52,37.8,.54,9.61,.02,19.21-.48,28.82-.53,12.58-.06,25.17,.17,37.76,.15,19.52-.03,39.04-.18,58.56-.25,7.87-.03,15.74,0,23.14,0,.5-3.94,.94-7.47,1.45-11.49-87.4,.56-174.87,1.5-262.31-.94,0-.51,0-1.01,0-1.52h46.24c-4.24-3.01-74.86-2.81-78.64,.24h29.7Zm-58.89-8.79l-.71,1.94c1.02,.85,1.98,2.35,3.06,2.44,4.28,.38,8.61,.49,12.91,.38,22.71-.57,45.41-1.45,68.12-1.79,14.2-.21,28.4,.43,42.61,.55,14.84,.12,29.69,.07,44.53,.11,31.53,.07,63.07,.17,94.6,.17,1.08,0,2.16-.87,3.25-1.34-.94-.89-1.76-2.07-2.88-2.59-.97-.45-2.29-.21-3.45-.2-17.61,.16-35.22,.47-52.83,.46-10.29,0-20.57-.77-30.86-.69-8.62,.06-17.24,1.25-25.86,1.23-17.78-.03-35.56-.72-53.34-.81-24.29-.12-48.57,.07-72.86,.12-8.77,.02-17.53,0-26.3,0Zm310.16,30.84c-.39-.43-.78-.86-1.17-1.3-1.75,.44-3.5,1.25-5.25,1.27-13.06,.13-26.12,.17-39.17,.11-12.55-.06-25.1-.34-37.65-.42-18.69-.11-37.39-.17-56.08-.18-11.15,0-22.29,.07-33.44,.19-11.1,.12-22.2,.65-33.29,.47-18.38-.3-36.75-1.12-55.12-1.5-5.28-.11-10.57,.55-15.86,.86,0,.58,.01,1.17,.02,1.75,1.51,.12,3.01,.35,4.52,.34,9.3-.01,18.6-.18,27.9-.09,19.64,.2,39.28,.7,58.91,.74,14.55,.03,29.11-.68,43.66-.71,16.87-.03,33.75,.4,50.62,.49,20.21,.11,40.42,.07,60.63,.11,9.33,.02,18.66,.14,27.98,.02,.93-.01,1.85-1.4,2.77-2.15ZM214.96,28.61c2.82,5.97-3.68,.96-3.72,4.09,0,.27-2.25,.51-3.45,.77-.25-1.23-.61-2.45-.72-3.69-.09-1,.44-2.82,.16-2.92-4.05-1.58-8.85-4.93-12.16-3.85-4.54,1.49-6.39,.89-8.68-3.17,2.86,9.53-1.66,18.39-.8,27.57,.85-1.05,1.13-2.2,1.39-3.35,1.02-4.52,1.62-9.18,3.14-13.52,1.87-5.34,6.26-7.27,10.52-5.4,4.08,1.79,4.72,4.88,2.13,10.56-1.87,4.11-3.8,8.2-5.7,12.29,2.89-1.96,4.83-4.52,6.8-7.06,3.63-4.66,9.7-6.51,12.82-3.93,3.43,2.84,2.77,8.05-1.58,12.91-1.59,1.78-3.1,3.63-4.65,5.45,6.49-1.13,10.45-10.44,18.76-3.47-1.4-2.86-2.9-5.1-4.84-6.84-.76-.68-2.53-.25-3.83-.32,.59-1.46,1.19-2.93,1.82-4.48-.92-1.31-1.95-2.78-2.98-4.24,.55-.38,1.1-.76,1.65-1.14,5.29,8.11,10.58,16.22,15.87,24.33,.35-.27,.69-.53,1.04-.8-6.47-10.47-11.64-21.92-22.99-29.8Zm59.17,45.55c0-.42,.02-.84,.02-1.26H126.07c0,.42,0,.84,.01,1.26h148.05ZM17.75,92.42c-.02,.44-.03,.89-.05,1.33H162.85c0-.44,.01-.89,.02-1.33H17.75ZM165.23,22.31c1.6,2.9,3.57,5.67,4.7,8.75,1.19,3.23,1.68,6.75,2.29,10.17,1.51,8.49,1.93,8.98,9.05,9.6,.4-1.95,.99-3.88,1.16-5.84,.56-6.41,1.11-12.82,1.28-19.24,.03-1.19-1.85-3.52-2.61-3.42-1.49,.19-3.17,1.46-4.08,2.76-.75,1.08-.79,2.87-.66,4.31,.41,4.45,1.12,8.88,1.58,13.33,.18,1.75,.03,3.53,.03,5.29l-1.55-.04c-.57-8.95-6.04-17.61-.88-27.66-3.28,4.11-6.84,3.95-10.31,1.99ZM25.47,53.99c-.34,.03-.68,.06-1.02,.09-.2-.39-.37-.81-.61-1.18-.76-1.15-1.55-2.28-2.33-3.42-.68,.71-2.03,1.6-1.9,2.08,.37,1.38,1.25,3.57,2.12,3.67,2.33,.26,5.09,.14,7-.98,.87-.51,.15-3.74,.15-6.17,.99,.49,3.8,1.38,3.74,1.96-.3,2.83-1.37,5.58-2.23,8.59h27.04c-3.51-2.2-6.97-4.63-10.67-6.64-5.93-3.22-11.14-8.18-18.68-7.62-3.19,.24-6,.06-2.94,4.5,.83,1.21,.27,3.38,.34,5.11ZM7.78,62.04c.03,.37,.06,.74,.09,1.11H157.58c0-.37,0-.74,0-1.11H7.78Zm179.42-6.83c7.06-6.89,11.32-14.98,13.65-24.03,.25-.98-.86-3.07-1.8-3.41-1.28-.47-3.36-.26-4.44,.55-1.16,.87-1.82,2.68-2.26,4.21-1.66,5.69-3.23,11.41-4.66,17.16-.44,1.77-.35,3.68-.5,5.52Zm-19.8,1.24c-2.33-2.89-4.05-4.87-5.58-6.98-3.31-4.56-6.38-9.29-9.9-13.67-.63-.78-3.39-.78-4.38-.06-.99,.72-1.72,3.02-1.33,4.23,3.14,9.63,11.19,13.33,21.18,16.48Zm-15.43-35.97c-.25-.49-.5-.99-.74-1.48-2.15,.65-4.88,.68-6.36,2.05-6.64,6.16-13.26,12.4-19.23,19.19-4.91,5.57-8.89,11.96-13.18,17.84,2.09,1.1,2.52,.89,5.39-2.66,10.27-12.69,17.5-28.29,34.13-34.94Zm100.07,43.24c-.05-.44-.1-.88-.15-1.32h-85.98c0,.44,0,.88,0,1.32h86.12Zm-54.11-11.19c7.92,2.75,13.17-.66,16.95-6.64,.99-1.57,.36-4.16,.47-6.29-2.24,.05-5.37-.82-6.57,.32-3.96,3.77-7.22,8.27-10.86,12.61Zm44.23,.28c.29-.12,.57-.24,.86-.37-.76-6.64-1.06-13.38-2.56-19.84-.48-2.09-3.96-3.78-6.41-4.94-.73-.34-3.32,1.51-3.73,2.78-.32,1.01,1.39,2.67,2.2,4.04,.42-.23,.83-.45,1.25-.68,.11-1.11,.22-2.22,.32-3.33,1.76,.76,3.24,2.31,2.93,2.9-.85,1.59-2.47,2.78-3.85,4.2,2.84,4.82,5.92,10.03,8.99,15.24Zm-68.91-.26c-2.3-8.14-4.5-16.31-7.04-24.37-.32-1.01-2.43-1.46-3.71-2.18-.76,1.64-2.44,3.48-2.13,4.88,1.88,8.49,7.26,15.11,12.88,21.67Zm-85.28-6c-.22,4.44-.23,4.4-5.01,6.36-.57,.23-.74,1.42-1.31,1.67-1.67,.74-3.63,1.99-5.15,1.65-3.07-.7-2.99-1.08-4.35,1.78,7.45,0,14.94,0,22.42,0-.89-5.48,1.48-9.01,6.89-11.07-1.9-.72-4.84-1.39-5.02-.95-2.34,5.79-5.42,3-8.48,.57Zm229.35-3.42c.22,.39,.44,.78,.65,1.16-.55,1.07-1.11,2.14-1.66,3.21,.5,.33,1,.66,1.5,.99,1.43-1.63,3.13-3.11,4.12-4.97,.28-.53-1.47-3.06-2.37-3.11-2.14-.11-4.41,.51-6.47,1.26-.93,.34-1.57,1.64-2.21,2.59-1.99,2.96-3.82,6.03-5.9,8.92-1.11,1.54-2.61,2.81-3.93,4.2,.23,.14,.46,.28,.7,.41,5.71-2.27,11.43-4.54,18.34-7.29-3.72-1.17-5.95-1.86-8.17-2.56-.1-.47-.2-.93-.3-1.4,1.9-1.15,3.8-2.29,5.7-3.44ZM58.02,54.8c.36-.1,.71-.21,1.07-.31-2.96-5.91-5.68-11.96-9.04-17.64-.95-1.6-3.76-2.1-5.6-3.04-1.37,1.84-2.32,3.12-3.56,4.78,1.24,.74,2.33,1.4,3.32,1.99,.75-1.81,1.25-3.02,1.75-4.23,.93,.8,2.76,2.1,2.64,2.32-1.07,1.93-2.49,3.67-3.94,5.65,4.17,3.27,8.76,6.87,13.36,10.48Zm220.65,17.44c6.86,3.58,47.09,3.04,50.2,0h-50.2Zm-33.99,21.82c-.03-.47-.07-.94-.1-1.41h-54.48c0,.47,0,.94,.01,1.41h54.56Zm67.51-34.72c7.18-.32,14.35-.65,21.63-.98v-6.71c-8.78-1.38-14.53,4.96-21.63,7.68ZM218.22,27.09c-9-11.11-31.61-18.2-45.28-12.86,17.33-.24,32.4,2.47,45.28,12.86Zm1.98,1.8c2.71,3.52,5.57,6.94,8.1,10.59,4.14,5.96,7.99,12.12,12.13,18.08,.83,1.2,2.43,1.86,3.67,2.77,.34-.39,.69-.78,1.03-1.17-10-8.77-12.9-23.08-24.94-30.28Zm47.39,63.7c.03,.3,.06,.61,.1,.91h47.83c0-.3-.01-.61-.02-.91h-47.91Zm-118.55-37.31c-4.3-6.09-9.23-8.31-14.36-6.48,2.88,6.82,10.88,10.43,14.36,6.48Zm-15.32-11.67c-.08,.75-.17,1.49-.25,2.24,8.3-3.27,12.45,3.5,18.05,6.77q-8.87-14.01-7.11-19.73c-5.89,1.33-3.93,6.14-4.03,9.95-2.45,.28-4.56,.53-6.67,.77Zm125.72,4.11c-.11,.4-.22,.8-.33,1.2,6.96,2.5,6.89,5.2,4.85,10,7.6,1.16,11.6-.24,11.02-3.86-6.94,2.18-7.78,1.4-6.54-6.57-3.03-.26-6.02-.52-9-.77Zm-153.18,9.36c-.31-2.41-.57-4.42-.83-6.43-2.26,.36-5.2,0-6.57,1.31-.98,.93-.59,4.61,.5,6.1,1.79,2.45,7.94,.95,10.85-2.76-2.08,.94-3.44,1.55-3.95,1.78Zm52.69-19.25c-1.36-4.71-3.52-9.7,1.49-13.92-.56-.33-1.12-.65-1.68-.98-1.63,2.2-3.27,4.4-5.08,6.85q-5.01-.78-5.51,.16c3.62,2.65,7.06,5.17,10.78,7.89Zm-20.86,20.32c-2.66-2.97-5.1-5.7-8.35-9.34-.43,2.71-.77,4.87-1.19,7.55-.5,.16-1.91,.6-3.32,1.05,.05,.25,.1,.49,.16,.74h12.7Zm87.76-3.9c-3.8-3.1-8.41-1.47-12.67,4.69,4.49-1.61,10.16,1.44,12.67-4.69ZM24.7,95.32c-.09,.67-.17,1.34-.26,2.02,6.24,2.19,12.63,.41,18.94,.77,.03-.58,.06-1.16,.08-1.74-6.26-.35-12.51-.7-18.77-1.05ZM119.85,56.78c.41,.28,.81,.56,1.22,.84,4.55-6.34,9.1-12.68,13.64-19.02-.43-.3-.85-.6-1.28-.9-4.53,6.36-9.06,12.72-13.58,19.09Zm-80.25,18.52c.07-.75,.14-1.5,.21-2.25-6.08-1.31-12.23,.84-18.36,1.34,6.05,.3,12.1,.6,18.15,.91ZM157.18,15.07c.16,.84,.32,1.67,.48,2.51,4.83-1.04,9.67-2.09,14.5-3.13-.16-.76-.31-1.51-.47-2.27-4.84,.96-9.67,1.93-14.51,2.89Zm99.64,44.29c.47,.37,.95,.74,1.42,1.1,1.25-1.79,2.7-3.48,3.58-5.44,.22-.48-1.51-2.65-2.24-2.59-1.91,.14-3.76,1.08-5.63,1.7,.16,.51,.31,1.03,.47,1.54h4.18c-.75,1.54-1.27,2.61-1.79,3.68Zm-62.76-2.53c.05,.66,.1,1.32,.16,1.98,4.9-.27,9.8-.53,14.69-.8-.01-.39-.02-.79-.03-1.18h-14.81Zm-24.87-1.1c.57-.39,1.15-.78,1.72-1.18-2.85-3.69-5.71-7.39-8.56-11.08l-1.43,1.05c2.76,3.74,5.51,7.47,8.27,11.21Zm16.16,2.91c-2.9-1.85-5.02-3.2-7.05-4.49-1.74,1.46-3.24,2.72-5.35,4.49h12.4Zm83.12,3.62c-.04,.33-.08,.67-.12,1h25.13c0-.33,0-.67,0-1h-25.01Z"/>
</svg>