<?xml version="1.0" encoding="UTF-8"?>
<svg id="Layer_1" data-name="Layer 1" xmlns="http://www.w3.org/2000/svg" viewBox="0 0 278.24 147.67">
  <path d="M0,147.67c3.11-7.08,13.96-10.3,22.7-6.48,.07-1.2,.25-2.29,.18-3.35-.56-7.95,3.14-11.86,11.18-11.88,1.63,0,3.26-.41,4.8-.61,.89,2.31,2.3,4.76,2.73,7.37,.4,2.45,.61,5.7-.69,7.39-.96,1.24-4.47,.53-7.52,1.41,2.21,.62,4.47,1.85,6.61,1.66,1.7-.15,4.05-1.67,4.73-3.2,3.44-7.73,2.69-15.59,.18-23.54-.91-2.88-.86-6.22-.52-9.27,.35-3.16,1.55-6.21-3.86-5.59,.43-1.39,.46-2.64,.92-2.82,5.26-2.06,8.64-6.26,12.54-10.05,4.64-4.51,11.12-3.99,15.73,.78,2.19,2.27,4.03,2.37,6.51,.89,1.06-.63,2.44-1.41,3.51-1.22,3.47,.64,5.19-1.02,6.62-3.83,1.03-2.02,2.52-3.79,4.23-6.29-2.17-1.23-4.82-2.05-6.46-3.81-2.22-2.38-5.33-5.65-5.05-8.21,.42-3.77,2.59-8.65,5.6-10.58,6.94-4.46,14.18-9.37,23.44-7.54,4.61,.91,9.42,2.05,14,1.62,4.96-.47,10.08-2.05,14.47-4.39,1.77-.94,2.5-5.21,2.4-7.91-.14-3.75-1.82-7.07-6.79-5.92,0,.47-.12,.87,.02,1.08,1.26,1.89,2.57,3.75,3.87,5.62-2.32,1.08-4.78,3.23-6.92,2.95-2.34-.31-4.52-2.72-6.5-4.51-1.2-1.09-1.67-2.94-2.82-4.11-2.98-3.06-1.96-9.48,1.94-11.34,4.09-1.95,9.27-.76,12.51,2.75,.97,1.06,2.19,1.89,3.3,2.82,.37-.23,.74-.46,1.11-.69-1.96-3.59-3.32-7.74-6.02-10.63-4.21-4.5-4.7-5.94-.21-11.35,.78,1.06,1.5,2.04,2.47,3.36C136.27,5.13,134.7,.01,139.86,0c5.71-.01,3.74,5,4.62,8.09,5.41,.74,5.78,1.48,3.46,6.57-1.67,3.66-3.25,7.35-4.76,10.76,4.02-1.25,7.4-2.91,10.92-3.25,5.79-.56,10.32,4.49,9.7,9.97-.39,3.39-10.01,9.33-13.08,7.84-1.1-.53-2.09-2.06-2.34-3.29-.14-.66,1.34-1.73,2.21-2.48,.69-.6,1.55-.99,2.85-1.79-3.63-2.24-5.95-1.58-7.69,1.58-3.07,5.61,.49,11.95,6.84,12.87,6.95,1.01,13.82,2.58,20.75,3.77,1.77,.3,3.69,.42,5.43,.07,7.53-1.52,13.76,1.34,19.17,5.97,4.83,4.13,8.02,9.29,5.23,16.02-.56,1.35-2.09,2.27-3.1,3.46-1.58,1.86-4.48,3.87-4.35,5.64,.28,3.86,1.54,7.96,3.54,11.27,1.09,1.8,4.52,2.18,6.93,3.21,3.3-11.45,17.3-12.06,24.29-4.33,4.51,4.99,5.95,8.95,4.44,15.8-2.08,9.39-5.07,19.32-.32,28.99,.58,1.18,1.55,2.16,2.36,3.22,3.09,2.52,6.31,2.74,9.26,.02,.8-.74,.65-2.49,.94-3.77-.49-.09-.99-.18-1.48-.27-.63,1.25-1.26,2.5-1.69,3.35-2.69,.3-4.92,.54-7.15,.79-1.61-8.52,4.4-12.27,10.52-14.85,2.49-1.05,7.56,.26,9.32,2.32,1.63,1.92,.71,6.29,.32,9.51-.16,1.34-1.87,2.49-2.88,3.72,.28,.42,.56,.84,.83,1.26,1.56-.87,3.3-1.51,4.63-2.64,4.53-3.81,7.32-3.45,10.74,1.32,.74,1.03,2.33,2.01,3.54,2.03,3.55,.04,4.82,1.58,4.25,4.93h-53.83c-.97-1.02-1.74-2.49-2.93-2.99-6.57-2.77-12.38-.32-18,2.99h-26.91c-7.03-5.14-8.05-13.26-10.08-20.78-.71-2.63-1.13-4.4-4.35-4.95-5.87-1-11.25-3.49-15.66-7.59-1.51-1.4-2.51-3.33-3.9-5.24-7.13,8.33-14.44,13.12-24.76,12.05,0,2.65,.4,4.72-.07,6.56-1.62,6.27-2.61,12.96-9.95,15.85-1.34,.53-2.03,2.69-3.01,4.09h-27.91c-6.98-2.84-13.96-5.19-20.93,0H0Zm122.5-48.71c5.86-10.02,6.03-10.11,14.3-8.35-2.32-5.37-4.55-10.76-7.01-16.04-.47-1.01-1.78-2.17-2.8-2.27-2.93-.3-4.43-1.71-3.93-4.49,.48-2.69,1-5.98,4.76-5.94,5.14,.05,5.61-3.29,6.09-7.61-7.93,6.61-17.33,6.76-26.45,8.52,.37,1.28,.73,2.54,1.04,3.62-3.86,.53-7.96,.03-10.72,1.72-4.87,2.97-6.14-.72-7.94-3.23-.84-1.17-.51-3.18-.75-5.22-3.76,2.46-4.33,5.42-2.32,8.89,2.78,4.8,7.46,5.44,13.33,2.18,5.05-2.81,10.57-5.42,15.99-1.92,4.38,2.83,8.18,6.73,11.74,10.6,2.85,3.1,1.81,6.33-1.45,8.87-4.88,3.81-9.72,6.47-16.25,3.17-3.55-1.8-7.4-6.59-5.56-9.98,1.29-2.36,4.2-4.8,6.76-5.29,3.68-.71,4.47,3.07,5.23,5.97,.25,.96,.22,2,.32,3,.55,.02,1.11,.04,1.66,.07,.21-3.08,1.35-6.51,.33-9.11-.83-2.13-4.22-4.61-6.48-4.61-9.55-.03-18.81,6.13-18.57,17.74,7.31,.46,12.61,4.09,16.88,10.67,3.45-1.6,7.28-5.35,11.81-.96Zm47.33-15.65c1.21-1.87,2.47-5.02,3.32-4.91,2.51,.32,5.27,1.49,7.08,3.22,.8,.77,.21,4.27-.9,5.49-2.16,2.37-5.19,3.92-7.74,5.96-3.98,3.16-7.46,.85-9.36-1.99-1.57-2.34-5.69-6.38,.42-9.11,.48-.21,.65-1.4,.73-2.16,.74-7,2.95-9.57,9.41-11.49,1.78-.53,3.33-1.82,5.52-3.07-9.8-4.43-18.54-8.38-28.12-12.71,1.66,4.57,3.3,7.87,7.59,9.63,2.51,1.03,5.46,2.76,6.48,4.97,.59,1.29-1.81,4.63-3.62,6.17-1.96,1.67-5.68,1.66-7.06,3.54-2.75,3.74-4.43,8.27-6.36,12.1,3.32,0,7.57-1.23,10.08,.34,2.64,1.65,3.61,5.96,5.42,9.31,2.46-4.61,5.27,.2,8.36,.26,4.47-7.55,12.52-8.68,21.06-10.88-1.44-2.68-2.15-5.42-3.91-6.95-2.87-2.49-6.37-4.27-9.71-6.18-2.41-1.38-4.97-3.2-7.54-.19-2.46,2.88-3.75,5.85-1.14,8.65Zm31.69,49.25c-7.67-6.54-8.52-12.89-2.56-20.6,.93-1.2,3.28-2.27,4.61-1.94,1.63,.4,3.68,2.1,4.16,3.66,1.82,5.89-2.52,4.57-6.21,4.64,1.81,1.66,3.66,2.99,5.55,3.05,1.04,.03,2.56-1.9,3.15-3.26,3.19-7.33-2.07-16.81-10.9-19.19,1.41,12.3-11.37,18.27-12.48,29.8,3.77-1.53,7.14-.58,8.75,3.46,1.33,3.33,2,6.93,3.07,10.79,2.49-1.32,5.32-2.82,8.13-4.31-2.01-4.89-.95-7.77,4.22-9.18,3.46-.95,7.31-.48,10.45-.62-.47-6.44-.92-12.53-1.39-18.93-2.68,.3-2.61,3-3.39,5.46-1.01,3.2-2.15,6.75-4.35,9.1-2.95,3.15-6.97,5.3-10.81,8.07Zm-116.03-36.02c-6.37-1.39-13.75,4.21-16.28,12.12-1.33,4.15,.48,9.19,4.69,10.02,2.44,.48,6.14-1.06,7.95-2.95,1.86-1.94,1.46-5.21-1.33-6.55-1.49,1.73-2.76,3.19-4.02,4.65-.98-1.19-2.95-2.59-2.75-3.53,.43-1.98,1.7-4.92,3.16-5.27,2.31-.56,5.8-.12,7.43,1.37,2.01,1.84,3.04,5.09,3.75,7.91,1.57,6.25-2.69,13.54-8.47,16.36-2.06,1.01-3.45,3.39-5.21,5.21,3.87,2.94,6.78,5.14,8.75,6.64,0-3.12-.94-6.68,.21-9.36,2-4.69,6.71-4.98,10.89-4.02,.34-4.05,.66-7.77,1.03-12.17-5.72-4.77-9.81-11.41-9.8-20.46Zm-24.15-5.86c1.03,2.09,1.28,3.12,1.91,3.79,3.28,3.48,3.35,6.91,.22,10.53-.48,.55-.64,1.54-.61,2.32,.15,4.51-1.87,4.5-5.51,2.16,4.88,11.06,.7,20.62-4.24,30.18,4.47-1.7,9.05-2.36,9.67-8.16,.32-3.07,4.46-4.32,7.53-2.92,1.16,.53,2.41,.86,3.61,1.28,.35-.49,.69-.98,1.04-1.48-2.29-2.63-4.38-5.47-6.91-7.84-3.39-3.17-4.45-6.77-3.4-11.2,.95-4,1.57-8.09,2.65-12.05,1.21-4.43-1.55-5.27-5.95-6.61Zm96.62,7c-.27-3.95-4.49-6.41-7.85-4.89-4.91,2.23-7.16,12.95-3.01,16.21,3.59,2.82,7.74,5.13,11.97,6.87,4.64,1.91,7.17-.21,7.61-5.23-1.64-.81-4.19-1.25-4.56-2.4-1.35-4.2-4.67-3.91-7.87-4.6-1.43-.31-3.24-1.76-3.65-3.07-.36-1.16,.76-3.88,1.63-4.07,1.62-.35,3.53,.64,5.72,1.18Zm18.73,21.53c-3.82,.17-6.57,1.11-6.06,5.11,.57,4.54,.8,9.4,2.7,13.4,1.49,3.15,4.91,6,8.16,7.54,3.98,1.89,7.47-1.36,9.69-4.22,1.16-1.49,.58-4.86-.17-7.07-.33-.99-2.99-1.19-3.95-1.52v8.7c-1.96-.19-4.34,.27-5.81-.68-5.63-3.65-3.01-8.01-.19-11.92q-5.18-5.25-4.37-9.35Zm-63.74,2.26c-.54-.22-1.09-.44-1.63-.66-.51,1.23-.83,2.61-1.58,3.67-1.39,1.97-2.83,5.07-4.62,5.35-4.3,.68-5.38,3.47-6.78,6.68-1.36,3.11-5.17,3.77-7.07,1.13-.89-1.25-.4-3.49-.53-5.28l-1.18-.51c-.81,1.7-2.49,3.56-2.21,5.06,.37,1.98,1.88,4.42,3.6,5.33,5.33,2.82,9.98,.15,15.33-4.12,5.98-4.77,6.05-10.54,6.68-16.65Zm2.11-8.08c1.93,1.52,3.49,3.73,4.71,3.56,5.89-.83,11.38-2.71,15.54-7.52,4.68-5.41,5.15-7.53,.87-13.24-.94-1.26-3.33-2.32-4.79-2.05-1.48,.28-2.62,2.32-3.91,3.59,2.71,.03,4.79-1.12,6.34-.62,.95,.31,1.64,3.19,1.45,4.8-.18,1.55-1.31,3.69-2.61,4.3-5.34,2.49-10.91,4.5-17.61,7.18Zm57.09,1c10.58,.02,14.09-8.14,18.66-15.03-7.5-1.85-19.42,7.54-18.66,15.03Zm-30.16-58.35c-1.06,4.38-2.91,8.75-2.94,13.14-.03,4.21,1.83,8.44,3.06,13.47,5.69-11.88,5.47-21.08-.12-26.62Zm-47.32,40.53c-.87,8.84,8.75,18.44,19.16,18.83-6.78-6.67-12.6-12.38-19.16-18.83Z"/>
</svg>