<?xml version="1.0" encoding="UTF-8"?>
<svg id="Layer_1" data-name="Layer 1" xmlns="http://www.w3.org/2000/svg" viewBox="0 0 78.69 637.81">
  <path d="M35.3,109.57c.04-2.23,.07-4.46,.11-6.69,8.05,8.01,1.97,16.07-.68,25.27,2.25-1.87,3.49-2.89,4.9-4.06v9.33c.35,0,.7,0,1.06,.02,.81-2.63,1.61-5.26,2.42-7.89,.68,.1,1.37,.2,2.05,.3-6.93-8.63-3.33-17.34-.43-25.1-3.27,.21-6.07,.38-9.15,.58v1.75c-2.94-2.27-2.99-3.94-.72-7.52,3.55-5.62,5.76-9.48,10.1-1.03,7.31,.97,3.68,4.49,1.85,7.74-.86,1.53-1.33,3.29-1.49,5.26,2.51-3.36,9.63-3.02,7.51-10.23-.17-.58,2.58-2.67,4.19-3,3.02-.62,6.19-.46,9.3-.63,.12-.72,.25-1.44,.37-2.16-3.52-1.06-6.98-2.48-10.58-3.1-4.8-.82-9.71-1.02-14.58-1.49,.05-.73,.1-1.47,.15-2.2,.94,0,2.05,.33,2.79-.06,2.28-1.19,5.86-2.28,6.33-4.09,1.34-5.14,4.09-3.41,6.6-2.04,1.96,1.07,3.48,2.97,5.38,4.66,1.61-2.55,3.03-4.79,4.87-7.7,.54,3.35,.84,5.23,1.2,7.49-.51,.56-1.5,1.65-2.64,2.91,1.23,1.68,2.36,3.22,3.48,4.73,5.77-3.42,6.46-7.37,3.09-13.73,1.47,1.09,3.58,1.87,4.29,3.34,2.67,5.49-1.26,8.95-4.41,12.32,1.73,3.88,3.66,7.5,4.88,11.36,.41,1.29-.66,3.45-1.66,4.71-1.5,1.88-3.55,3.31-4.87,4.48,1.13,4.99,8.68,3.61,6.72,9.53-1.17,3.52-2.8,6.89-4.32,10.55,6.81,6.77,6.13,14.77,.87,17.49,1.06,3.17,3.06,6.26,2.77,9.12-.3,2.98-2.8,5.74-4.27,8.47,1.53,3.63,3.25,7.37,4.68,11.22,.92,2.46,.13,3.89-2.77,4.54-1.38,.3-3.15,2.33-3.29,3.73-.13,1.31,1.38,3.73,2.62,4.09,5.45,1.58,4.12,5.19,2.79,8.59-1.01,2.57-2.7,4.86-4.32,7.7,5.22,3.47,6.62,8.73,4.31,14.48-.63,1.58-3.86,2.1-6.16,2.47,6.96-4.71,7.02-9.1,.13-14.88-5.8,5.32-11.59,10.62-18.37,16.84-.71-5.92,.69-11.25-5.64-11.58-2.79-.14-4.75,1.27-4.24,4.35,1.95-.33,3.81-.81,5.67-.79,.36,0,1.28,2.27,.93,2.93-.68,1.25-2.09,2.91-3.21,2.92-1.63,.02-4.11-.81-4.78-2.07-2.9-5.43-.46-9.08,5.74-9.98,5.83-.85,11.59-2.16,17.35-3.4,1.33-.29,2.54-1.15,3.81-1.75-.07-.43-.14-.86-.21-1.28-2.82,0-5.65,.06-8.47-.02-2.02-.05-4.64,.42-5.85-.65-.96-.85-.19-3.69-.19-6.51-2.41-1.64-5.7-3.9-9.98-6.82,1.69,3.17,2.89,5.3,3.97,7.49,1.18,2.4,1.78,4.18-1.58,5.96-2.07,1.1-2.98,4.44-5.3,6.55,.2-4.04,.41-8.09,.62-12.42,.64,.15,1.65,.38,4.1,.95-7.93-9.57-3.86-18.23-.43-27.21-1.26,1.34-2.51,2.68-3.82,4.07-.31-4.87-.58-9.2-.95-15.02,1.69,2.11,2.62,3.37,3.65,4.54,.86,.96,1.7,2.27,2.8,2.61,3.02,.94,2.94,2.67,1.78,4.96-1.23,2.43-2.47,4.85-2.82,8.05,2.8-2.07,5.6-4.13,8.4-6.21-1.19-7.46-1.13-7.53,6.65-7.87,1.48-.07,2.96-.14,4.42-.36,.58-.08,1.11-.55,2.19-1.12-5.01-4.1-10.73-3.69-16.12-4.43-1.61-.22-3.43,.07-4.79-.61-2.33-1.17-5.5-2.52-6.2-4.55-.65-1.87,1.45-4.73,2.64-7.96-.13-.2-.89-1.41-1.68-2.65-5.09,5.19-5.94,5.29-8.16,.74,1.47-.24,2.82-.47,4.77-.79-.11-1.16,.21-3.01-.42-3.44-1.31-.89-3.6-1.91-4.64-1.33-3.18,1.78-4.49,4.68-1.85,8.18-5.23,1-12.09-4.2-19.65-14.5-4.05,1.86-5.85,5.46-4.68,9.37,.91,3.03,2.72,4.34,6.04,3.19-.95-1.38-1.8-2.62-2.65-3.86,.18-.46,.36-.91,.53-1.37,1.58,.4,3.84,.31,4.55,1.32,.79,1.12,.75,4.34,.03,4.75-2.08,1.16-5,2.38-7.03,1.75-5.11-1.57-6.35-9.16-2.71-13.92,.9-1.18,1.97-2.22,2.87-3.24-1.99-4.89-4.05-9.93-5.99-14.68,2.38-1.4,4.12-1.99,5.26-3.17,2.87-2.99,2.58-5.65-1.15-6.88-5.31-1.75-3.54-5.25-2.42-8.29,.89-2.41,2.78-4.45,4.55-7.12-4.48-3.41-7.33-7.74-5.65-13.58,.35-1.2,1.97-2.03,3.55-2.8-3.84,6.3-.35,10.33,2.33,13.21,3.23-2.51,6.33-4.93,9.44-7.33,2.86-2.2,5.74-4.39,9.3-7.1,.47,3.05,.75,4.87,1.01,6.54-.98,.45-1.82,.84-2.66,1.22,.79,.54,1.52,1.39,2.38,1.54,1.85,.32,3.76,.39,5.64,.37,4.04-.04,5.35-2.49,3.33-6.99-.53,1.29-.67,2.59-1.37,3.07-.74,.51-2.14,.57-2.99,.2-.7-.31-1.57-1.71-1.37-2.29,.28-.83,1.65-2.05,2.23-1.89,2.46,.68,6.24,1.25,6.85,2.89,1.13,3.01-.51,6.25-4.32,7.08-5.72,1.24-11.47,2.28-17.18,3.54-1.96,.43-3.83,1.23-5.75,1.86,.1,.59,.2,1.17,.3,1.76,2.7-.25,5.46-.2,8.07-.81,3.67-.87,6.69,1.04,5.77,4.47-.75,2.81,.36,3.69,2.34,5.05,2.23,1.54,3.99,3.77,5.95,5.7-1.26-.35-2.64-.48-3.77-1.09-6.45-3.45-12.79-7.12-19.31-10.44-1.05-.54-3.63-.18-4.05,.58-1.22,2.22-3.04,5.61-2.19,7.16,1.58,2.85,4.9,4.71,7.5,6.99-8.46,10.16-8.49,10.36-2.89,18.42,6.05-5.66,14.59-7.5,20.43-13.51-3.22,.44-6.29,2.42-8.97,1.97-2.52-.42-4.61-3.39-7.2-5.49,2.96-2.54,5.65-4.84,7.32-6.26,4.96,.63,9.04,1.15,13.12,1.67h0Zm35.49,60.61c-4.53,2.45-8.3,4.39-11.96,6.51-3.58,2.08-7.04,4.35-10.55,6.54,.06,.58,.11,1.15,.17,1.73,6.96-4.15,12.89-3.84,17.39,2.7-5.15,6.26-11.26,7.48-18.62,2.89-.02,.64-.03,1.28-.05,1.92,7.77,4.21,15.54,8.42,23.3,12.63,5.2-6.71,4.98-6.53,.01-12.68-1.28-1.59-1.46-4.95-.78-7.06,.68-2.1,3.06-3.65,4.97-5.75-1.17-2.84-2.47-6-3.88-9.45v.02Zm-34.33-51.59c-.27-.17-.54-.34-.81-.52-2.16,1.63-4.55,3.04-6.38,4.98-.95,1.01-1.48,3.07-1.21,4.47,.63,3.36-.48,4.52-3.73,4.6-3.29,.08-6.58,.59-9.87,.91-.07,.75-.15,1.49-.22,2.24,3.99,1,7.97,2.7,11.98,2.8,5.04,.13,9.79,.14,12.43,2.71,5.36-1.38,9.74-2.52,14.13-3.64,4.94-1.25,9.89-2.48,14.83-3.71-.1-.72-.21-1.45-.31-2.17-3.41,.29-6.81,.65-10.23,.85-3.44,.2-4.79-1.21-3.92-4.89,.3-1.3-.35-3.46-1.34-4.31-2.17-1.85-4.84-3.11-7.68-4.84,.12,.91,.1,1.37,.25,1.77,1.53,4.07,7.59,8.17-.13,12.19-.39,.2-.2,1.35-.57,1.85-1.11,1.53-2.35,2.96-2.94,3.69-2.75-2.35-4.62-4.4-6.89-5.77-2.78-1.68-3.17-3.52-1.59-6.14,1.42-2.35,2.81-4.72,4.21-7.09v.02Zm34.34,16.7c-5.76,5.56-11.12,10.74-16.06,15.51,5.16,4.89,10.36,9.81,15.56,14.74,6.55-5.76,6.09-9.25-1.48-15.71-1.27-1.08-1.2-3.92-1.32-5.98-.02-.25,2.62-.66,4.02-1,.11,1.75,.22,3.51,.39,6.25,1.13-1.23,2.7-2.25,3.27-3.67,2.02-4.99-2.34-7.24-4.38-10.13h0Zm-.56-40.21c-8.05,4.82-15.64,9.36-23.22,13.9,.2,.41,.39,.83,.59,1.24,2.5-1.05,4.95-2.24,7.51-3.08,1.25-.41,3.02-.71,4.02-.13,2.25,1.31,4.03,3.48,6.31,4.7,.92,.5,3.02-.15,3.95-.99,1.89-1.7,3.36-3.88,5.42-6.38-1.34-2.7-2.91-5.87-4.59-9.26h.01Zm-23.42,20.95c-.13,.32-.26,.63-.4,.95,.67,.37,1.34,.75,2.02,1.11,6.14,3.27,12.26,6.6,18.46,9.76,1.39,.71,4.19,1.52,4.46,1.08,1.51-2.39,3.61-5.33,3.28-7.77-.52-3.81-11.82-8.11-13.33-5.33-4.07,7.53-7.94,.63-11.75,.83-.9,.05-1.83-.41-2.74-.64h0Zm-.23,35.88s.78,.96,1.6,1.96c-1.72,.7-3.44,1.39-6.11,2.48,1.36,1.24,2.7,3.4,3.9,3.33,1.59-.1,4.14-1.72,4.41-3.08,.82-4.09,1.14-8.41,.8-12.56-.11-1.38-2.88-3.66-4.28-3.55-2.26,.18-5.28,1.26-4.7,4.02,2.46,.2,4.46,.36,6.45,.53-.59,1.98-1.19,3.97-2.06,6.87h-.01Zm7.59,33.67c-3.3,.65-6.61,1.31-9.92,1.96,0,.3,.02,.6,.04,.9,3.52,.74,7.05,1.49,10.89,2.3-.36-1.87-.64-3.31-1-5.17h0ZM25.39,110.32c.11,1.86,.22,3.67,.34,5.67,3.88-.75,7.13-1.38,11.18-2.16-3.99-1.22-7.14-2.17-11.52-3.5h0Zm20.54,2.24c-.02,.36-.05,.72-.07,1.08,2.61,.56,5.21,1.12,7.59,1.64,.57-1.65,1.05-3.02,1.66-4.77-3.37,.75-6.27,1.4-9.17,2.05h-.01Z"/>
  <path d="M53.8,26.63c-1.59-6.4-.93-7.26,5.2-7.53,2.44-.11,4.87-.36,7.31-.55,.07-.79,.14-1.59,.21-2.38-4.3-.87-8.58-1.85-12.9-2.57-2.41-.4-4.96-.05-7.33-.58-5.25-1.17-7.23-5.52-4.31-10.03,.82-1.26,3.5-1.28,5.33-1.87,.38,1.3,1.45,3.29,.99,3.76-.98,.99-2.74,1.2-5.23,2.11,1.52,.94,3.5,3.03,4.46,2.62,3.89-1.63,5.36-4.89,3.19-9.61,9.46,2.34,13.61,10.2,20.69,16.61,1.34-3.26,3.15-5.91,3.28-8.65,.09-1.76-2.28-3.65-4.23-6.46-.16,3.29,.02,4.98-.49,6.43-.15,.41-2.95,.6-3.42,0-.91-1.16-1.79-3.36-1.27-4.38,.65-1.26,2.98-2.7,4.18-2.4,2.63,.66,6.32,1.8,7.16,3.79,1.1,2.61,.19,6.29-.49,9.36-.35,1.58-2.08,2.86-2.63,3.55,1.94,5.4,3.67,10.24,5.19,14.47-2.59,1.88-4.92,2.75-5.65,4.36-.65,1.42,.05,3.92,.96,5.47,.86,1.48,4.03,2.4,3.97,3.45-.16,3.02-1.3,6.03-2.35,8.93-.41,1.14-1.63,1.97-3.07,3.61,6.55,2.59,6.55,7.87,5.42,13.2-.32,1.5-2.28,3.42-3.76,3.7-2.04,.38-4.73-.07-6.35-1.26-.88-.65-.52-3.69,.06-5.38,.24-.71,3.41-1.32,3.69-.91,.97,1.44,1.26,3.36,1.76,4.94,3.97-2.4,3.44-7.15-2.36-12.56-5.84,5.54-10.17,13.08-18.87,16.23,.14-4.69,1.3-9.58-4.38-10.5-1.56-.25-3.49,1.84-5.02,2.73,2.99,.72,5.14,1.24,7.28,1.76-.59,1.56-.75,3.96-1.85,4.53-3.46,1.81-6.28,.65-7.14-2.06-2.9,.87-5.54,1.66-8.19,2.46-.18-1.31-.96-3.27-.41-3.77,.88-.81,2.63-.67,4.87-1.09-.23-.6-.42-2.6-1.34-3.05-1.15-.56-3.7-.38-4.26,.44-1.44,2.13-2.12,4.79-3.6,8.45-2.64-1.76-6.23-3.74-9.29-6.34-2.59-2.21-4.47-5.26-6.89-7.71-.67-.68-3.08-.84-3.11-.77-.81,2.75-1.87,5.55-1.88,8.35,0,1.18,2.26,2.37,3.19,3.27,.51-2.04,.86-3.44,1.21-4.83,1.44,.69,2.89,1.39,4.33,2.08-.97,1.77-1.9,5-2.93,5.04-2.64,.09-6-.49-7.86-2.17-2.85-2.57-3.08-6.5-.99-10.02,1.07-1.79,2.57-3.32,3.92-5.02-3.05-2-5.86-3.85-7.8-5.12,.93-3.12,1.45-5.4,2.31-7.54,.4-.99,1.49-1.7,2.25-2.56,1.41-1.59,3.29-3.01,3.98-4.87,.26-.71-2-2.86-3.48-3.64-4.31-2.28-2.51-5.67-1.52-8.56,.78-2.27,2.6-4.17,2.79-5.98-1.15-4.35-2.88-8.66-3.17-13.06-.12-1.85,2.5-4.43,4.49-5.67,1.11-.69,4.3,.13,5.08,1.28,.95,1.42,.62,3.94,.27,5.88-.09,.48-3.14,1.18-3.54,.69-1.01-1.23-1.29-3.08-1.83-4.57-4.55,2.92-3.84,7.61,2.67,11.77C16.24,11.1,19.61,3.04,27.79,1.31c1.03,3.08,1.22,6.98,3.23,8.59,1.52,1.21,5.34-.51,8.54-.98,.41,3.9-3.05,4.41-6.43,5.06-6.74,1.3-13.47,2.63-20.2,3.95,.01,.54,.03,1.07,.04,1.61,1.7,.09,3.41,.32,5.11,.23,1.96-.1,3.92-.75,5.86-.7,4.12,.12,5.04,2.75,2.54,7.81,2.78,1.99,5.62,4.02,8.46,6.05,.3-.23,.6-.46,.9-.69-1-1.73-2.43-3.36-2.87-5.23-.42-1.75-.16-3.9,.48-5.61,.63-1.66,2.28-2.89,3.21-4.47,1.8-3.05,4.77-3.32,6.97-.48,.2,.26,.36,.62,.63,.76,7.5,3.9,4.36,8.96,1.53,14.01-.21,.37-.18,.89-.37,1.99,3.02-2.38,5.57-4.38,8.34-6.57h.04Zm17-5.48c-7.8,4.42-15.39,8.73-22.98,13.04-.02,.64-.04,1.28-.07,1.92,8.34-6.16,14.6-4.54,19.25,3.3-5.9,4.13-11.73,7.17-18.72,1.55-.04,.64-.08,1.28-.12,1.93,7.45,3.87,14.9,7.73,22.46,11.65,5.44-4.62,5.25-5.52,.68-10.89-1.44-1.69-1.83-5.16-1.27-7.46,.55-2.27,2.91-4.09,4.76-6.48-1.16-2.48-2.53-5.43-4-8.57h.01Zm-37.84,14.83c.08-.65,.15-1.29,.23-1.94-1.52-.86-3.01-1.77-4.57-2.56-4.99-2.51-10.22-4.64-14.94-7.59-2.48-1.55-4.09-2.21-5.53,.56-1.24,2.38-4.17,4.79-.14,7.54,4.55,3.11,5,6.52,1.88,10.83-4.01,5.53-3.97,6.34,.56,12.26,7.21-3.95,14.41-7.9,21.61-11.84-.03-.6-.06-1.2-.09-1.79-7.25,4.66-13.04,3.24-17.88-2.91,5.45-6.4,11.62-7.39,18.87-2.57h0Zm12.38,7.82c-.2,.18-.4,.35-.6,.53,.66,1.44,1.05,3.1,2.02,4.28,2.42,2.95,1.33,4.08-.7,7.39-4.43,7.21-7.04,8.23-11.25,.57-6-.26-3.46-3.46-2.18-6.32,.63-1.43,1.01-2.97,1.51-4.47-2.93,2.17-8.22,2.15-6.7,7.89,.19,.72-2.24,2.79-3.73,3.18-2.95,.77-6.08,.81-9.14,1.15l-.1,2.35c5.14,.78,10.26,1.87,15.43,2.25,4.58,.33,8.52,1.05,10.02,7.26,1.46-5.63,4.62-7.02,9.27-7.26,4.48-.23,8.9-1.75,13.32-2.79,1.78-.42,3.52-1.05,5.28-1.58-.05-.48-.11-.96-.16-1.44-2.02-.09-4.11-.58-6.04-.2-8.45,1.65-8.99,1.26-8.11-6.92-2.73-1.96-5.43-3.91-8.13-5.86h-.01Zm-4.53-15.79v-9.8l-1.45,.02v8.09c-1.3-.18-2.29-.32-4.62-.65,8.59,9.51,2.27,17.98-.02,26.99,1.57-.74,2.69-1.27,3.68-1.74,.43,2.8,.8,5.24,1.18,7.69,.63-.08,1.26-.15,1.89-.23-.14-2.78-.27-5.57-.42-8.58,1.05,.27,2,.53,4.02,1.05-6.83-9.26-3.47-17.69-.34-26.17-1.14,.97-2.28,1.93-3.92,3.32h0Zm-14.37,8.29c-.12,1.43-.26,2.94-.4,4.62,3.47-.88,6.44-1.63,9.4-2.39l-.04-.68c-2.81-.49-5.61-.97-8.96-1.55Zm27.78-.23c-2.95,.61-5.42,1.12-7.9,1.64,0,.26-.02,.52-.03,.78,2.82,.77,5.65,1.55,8.8,2.41-.33-1.79-.58-3.15-.88-4.83h0Z"/>
  <path d="M43.91,440.96c.46,.31,1.2,.98,1.33,.88,2.79-2.22,5.51-4.54,8.5-7.04-.15-1.56-.37-3.71-.6-6.03,3.42-.38,6.23-.5,8.95-1.09,1.19-.26,2.18-1.46,3.27-2.24-.98-.65-1.9-1.7-2.96-1.87-5.14-.83-10.31-1.49-15.48-2.07-5.63-.63-8.85-5.45-5.92-9.51,.89-1.24,3.56-1.25,5.45-1.55,.19-.03,.68,1.85,1.02,2.84-1.51,.31-3.03,.62-5.22,1.08,.28,.99,.34,3.3,1.19,3.64,1.4,.57,4.02,.52,4.85-.41,1.7-1.91,2.55-4.59,3.91-7.26,4.92,1.08,5.46,1.5,17.58,14.26,4.07-1.76,5.14-5.54,4.73-9.25-.3-2.74-2.64-4.77-5.66-4.36,.12,2.1,.22,3.88,.33,5.66-1.4-.41-3.35-.38-4.11-1.33-1.92-2.41-.08-6.1,3.15-5.9,2.56,.16,6.18,1.08,7.24,2.91,1.34,2.29,1.09,5.97,.48,8.82-.43,2.02-2.6,3.67-3.77,5.19,1.93,4.84,3.8,9.52,5.72,14.35-2.05,.88-3.53,1.21-4.64,2.04-3.68,2.76-3.42,7,.87,8.44,3.68,1.23,3.65,3.48,2.69,6.02-1.2,3.19-3.01,6.14-4.57,9.2,6.78,7.38,7.41,13.39,1.64,15.69,3.09-5.76,2.29-8.66-3.32-13.19-4.46,3.58-8.83,7.08-13.2,10.59l.11,.12c-4.49-7.78-9.16-8.48-17.01-2.2,.29-5.1,3.81-5.21,7.17-5.86,6.64-1.29,13.23-2.83,19.84-4.27-.05-.74-.1-1.49-.14-2.23-2.44,0-4.96-.41-7.31,.08-6.1,1.26-6.67,.88-6.47-5.18,.03-.97-.55-2.33-1.3-2.89-2.6-1.92-5.41-3.56-8.44-5.49-.72,4.61,6.08,7.2,2.51,11.83-2.29,2.97-4.83,5.73-7.19,8.5-2.62-2.23-4.93-3.85-6.74-5.92-.66-.76-.47-2.68-.08-3.88,.81-2.55,2-4.97,2.27-8.01-2.82,2.04-5.64,4.07-8.49,6.13,1.8,6.89,1.8,6.82-5.86,7.4-2.3,.18-4.55,.91-6.83,1.38-.01,.73-.02,1.46-.04,2.19,4.97,.84,9.94,1.73,14.93,2.5,2.41,.37,5.1-.06,7.22,.88,3.33,1.49,5.14,4.49,2.93,8.07-.82,1.33-3,1.88-4.66,2.51-.19,.07-1.04-1.65-1.58-2.53,1.35-.82,2.7-1.64,5.11-3.09-.81-.74-1.82-2.43-3.13-2.71-2.87-.62-5.27,3.17-5.83,8.77-8.87-1.21-11.78-10.11-18.38-14.52-3.83,3.08-4.07,7.24-3.08,11.36,.26,1.08,2.81,1.61,4.94,2.72-.88-2.75-1.37-4.28-1.86-5.8,.9-.15,2.19-.74,2.62-.35,1.12,1.02,2.79,2.72,2.52,3.67-.36,1.29-2.4,3.1-3.54,2.98-2.55-.27-6.53-.99-7.15-2.61-1.08-2.83-1.28-7.39,.33-9.58,2.67-3.61,2.8-6.12,.45-9.56-1.09-1.6-2.12-3.64-2.13-5.48-.01-1.65,.98-3.93,2.28-4.85,3.96-2.82,4.68-7.27,.67-8.92-4.58-1.88-3.68-5.03-2.58-8.07,.93-2.59,2.77-4.85,4.21-7.26-6.88-7.52-7.46-13.3-1.76-15.57-.34,2.34-1.38,4.93-.87,7.15,.54,2.34,2.57,4.33,3.9,6.4,5.9-5.49,11.32-10.55,16.83-15.68,1.65,3.64,2.18,6.97,4.1,8.42,1.9,1.43,5.2,.94,8.43,1.36-1.53,.72-3.01,1.73-4.64,2.12-5.07,1.22-10.2,2.2-15.31,3.27-.93,.19-1.9,.26-2.81,.55-1.2,.37-2.35,.89-3.52,1.35,.16,.54,.32,1.08,.48,1.61,2.74,0,5.48-.12,8.2,.04,1.98,.11,4.4,.02,5.73,1.12,.82,.68-.03,3.43-.17,5.88,2.45,1.74,5.28,4.37,8.59,5.95,5.26,2.52,3.95,6.41,2.83,10.35-.79,2.81-1.92,5.52-3.25,9.28,2.04-1.14,3.26-1.83,4.39-2.46-.18,2.67-.35,5.33-.53,8,.77,.05,1.55,.1,2.32,.15,.15-3.14,.31-6.27,.48-9.68,.85,.4,1.83,.87,3.22,1.54-1.3-4.18-2.81-7.86-3.51-11.7-.53-2.92-1.1-6.51,3.2-7.68l-.09-.09,.02-.02Zm-.3,5.18l-.68,1.32c2.59,2.01,5,4.31,7.8,5.97,4.91,2.9,10.3,5.03,15.01,8.2,3.33,2.24,5.3,1.85,7.21-1.29,1.76-2.89,3.88-5.73-1.08-7.88-1.22-.53-2.26-2.3-2.7-3.71-1.52-4.93,1.59-7.54,5.94-9.78-1.73-3.65-3.35-7.06-4.89-10.32-8.06,4.78-15.42,9.14-22.78,13.51,.22,.46,.44,.91,.65,1.37,1.17-.3,2.39-.47,3.5-.92,5.06-2.03,9.89-.82,13.9,3.58-6.54,7.02-10.93,7.6-16.95,3.01,3.8-.5,8.37-1.09,12.93-1.69-.02-.46-.05-.92-.07-1.38h-6.62c.05-.82,.09-1.54,.13-2.21-4.03,.79-7.67,1.51-11.3,2.22Zm-20.28-3.81c3.05,1.15,6.35,2.39,9.64,3.63,.21-.48,.42-.96,.64-1.45-8.16-4.27-16.31-8.55-24.4-12.78-7.22,7.04,.26,11.36,2.93,17.63,4.02-2.52,7.74-4.86,11.19-7.03Zm-1.29,13.06c-6.54-7.82-10.56-7.17-16.51,2.73,1.4,2.84,2.83,5.75,4.22,8.56,7.7-4.6,14.97-8.94,22.24-13.28-.23-.49-.46-.97-.7-1.46-3.09,1.15-6.18,2.3-9.25,3.44h0Zm2.72-3.52c3.24-.88,6.75-1.83,10.27-2.78-.04-.33-.08-.65-.12-.98-3.26-.81-6.51-1.61-9.13-2.26-.4,2.37-.72,4.23-1.02,6.02h0Z"/>
  <path d="M5.16,233.65c-1.56,3.94,.66,6.88,3.9,9.03,5.89-5.44,11.49-10.62,17.9-16.55,1.65,5.36-.02,11.21,6.24,11.19,1.59,0,3.18-2.28,4.76-3.51-.29-.43-.58-.87-.86-1.3-.54,.18-1.08,.54-1.61,.5-1.47-.1-2.93-.37-4.39-.57,.57-1.51,1.01-4.21,1.75-4.29,1.72-.2,4.72,.35,5.21,1.48,2.62,6.06,.06,9.17-6.83,10.21-6.46,.97-12.8,2.74-19.2,4.16,.11,.73,.22,1.47,.34,2.2,2.61,0,5.23-.04,7.84,0,2.17,.04,4.33,.2,6.5,.31-.16,2.01-.32,4.02-.53,6.66,2.19,1.45,4.95,3.28,7.71,5.11-.28,.5-.55,1-.83,1.51-7.65-3.86-15.31-7.72-23.69-11.96-1.16,1.7-2.85,3.69-3.92,5.98-.44,.93,.04,2.96,.83,3.71,7.02,6.61,6.95,8.96-1.03,15.21,1.32,3.06,2.67,6.18,4.23,9.8,8.3-4.89,16.1-9.48,23.9-14.08l.65,.56c-.88,1.19-1.62,2.54-2.67,3.55-2.42,2.34-6.68,3.64-4.39,8.55,.05,.1-2.38,1.79-3.78,2.09-3.16,.69-6.41,.99-9.63,1.44-.01,.84-.02,1.67-.04,2.51,4.51,.81,9,1.68,13.52,2.39,2.1,.33,4.27,.14,6.36,.5,4.84,.85,6.61,3.17,5.44,7.93-.36,1.46-2.47,2.71-4.05,3.5-.46,.23-1.87-1.49-2.84-2.31,1.53-.95,3.06-1.9,5.63-3.5-.61-.65-1.59-2.62-2.92-2.9-3.76-.79-5.25,1.81-5.4,9.22-9.51-1.14-12.86-9.99-20.26-16.05-1.19,3.44-2.67,6.35-3.05,9.4-.19,1.53,1.61,3.32,2.64,5.24,1.08-1.01,1.5-1.22,1.48-1.41-.14-1.76-1.97-4.28,1.52-4.43,1.11-.05,3.38,2.03,3.24,2.4-.63,1.66-1.69,3.95-3.07,4.35-2.41,.71-5.18,.2-8.03,.2-1.43-6.49-2.87-12.52,3.89-16.14-2.16-5.41-4.14-10.37-6.39-16.02,4.5,.22,7.74-.92,7.13-4.87-.34-2.22-2.92-4.09-4.49-6.12l-2.48,.35c1.77-4.57,3.54-9.14,5.11-13.19-1.32-3.63-2.9-7.21-3.91-10.95-1.53-5.64,3.9-5.57,7.4-7.34-8.75-4.04-9.64-8.31-4.11-15.74,.55-.74,.73-2.14,.45-3.05-.82-2.67-2.17-5.19-2.89-7.88-.77-2.85-2.38-5.98,2.55-7.37,2.77-.78,3.17-5.08,1.29-7.04-1.56-1.63-4.36-3.45-4.26-5.04,.21-3.39,1.92-6.7,3.08-10.02,.21-.58,.76-1.04,1.58-2.12-4.37-2.64-6.58-6.34-4.68-11.46,.42-1.13,.95-2.21,2.14-3.2-2.46,5.16-1.09,9.66,3.17,12.04,1.68,.94,5.35-1.73,7.61-3.77,1.2,0,3.1,.46,3.46-.09,.9-1.38,1.09-3.22,1.7-5.35,.77,.27,2.16,.77,3.56,1.26,.04-1,.08-1.99,.18-4.13,3.1,3.67,5.5,6.52,7.59,8.99-6,1.48-13.45,3.31-20.89,5.15,.07,.67,.14,1.34,.21,2,3.16,0,6.35,.25,9.48-.06,4.51-.44,5.3,.62,5.2,5.01-.05,2.18,1.92,4.4,3.39,7.46-5.64-2.99-11-5.55-16.06-8.6-3.36-2.03-5.24-1.94-7.39,1.77-1.92,3.32-2.07,5.11,1.51,7.11,1.87,1.05,3.07,3.32,4.97,5.49-1.99,2.39-4.33,4.83-6.18,7.6-.65,.97-.48,2.9-.01,4.14,.95,2.55,2.35,4.92,3.45,7.13,5.48-3.47,10.43-6.61,15.98-10.12,.31,3.89,.54,6.73,.78,9.69-4.41,.71-8.47,1.37-12.53,2.02-.06,.76-.13,1.53-.19,2.29,7.14,1.56,14.28,3.12,22.86,5-6.1,1.01-9.32,3.72-8.49,9.65-.57-.07-1.14-.15-1.71-.22-.18-1.69-.36-3.37-.61-5.64-3.76,4.77-6.27,2.15-9.01-1.25-2.12-2.63-4.82-4.8-7.48-7.39-3.21,2.73-4.67,6.02-2.95,9.98,.65,1.5,2.49,2.47,3.4,3.32,.61-2.44,.88-4.07,1.54-5.52,.09-.2,2.86,.18,3.15,.84,1.38,3.13,1.01,5.93-1.38,6.48-.91,3.14-1.04,5.62-2.31,7.16-.65,.79-3.31-.12-5.99-.33v.05Z"/>
  <path d="M69.23,228.46c2.16,.33,5.68,0,6.2,1.12,1.12,2.4,1.29,5.66,.72,8.32-.44,2.05-2.6,3.72-3.7,5.17,1.9,5.05,3.75,9.97,5.6,14.89-.71-.08-1.42-.16-2.13-.24-1.67,2.08-4.54,4.11-4.64,6.27-.09,1.81,3.05,3.77,4.77,5.67,.69-.06,1.38-.11,2.07-.17-1.69,4.61-3.39,9.23-5.36,14.59,4.29,1.96,5.21,6.74,4.46,11.86-.23,1.54-1.96,3.56-3.42,4.03-1.76,.57-4.3,.25-5.85-.73-.93-.59-.94-3.25-.65-4.85,.09-.51,2.46-.61,3.79-.89,.27,1.47,.54,2.94,.91,4.97,.51-.27,2.48-.66,2.77-1.59,1.56-5.02-.47-8.87-4.63-11.74-5.48,5.77-10.26,12.36-17.97,16.04-.6-8.58-1.75-10.53-5.61-9.98-3.5,.5-5.48,2.07-4.06,5.95,1.61-.95,3.09-1.91,4.68-2.62,.16-.07,1.55,1.55,1.4,2.14-.36,1.4-1.25,3.71-2.01,3.75-1.67,.08-4.15-.52-4.96-1.74-3.05-4.58,.13-9.31,5.68-10.12,6.11-.89,12.1-2.7,18.12-4.2,.65-.16,1.16-.9,1.49-2.56-2.62,.22-5.23,.62-7.84,.61-2.02,0-4.8,.15-5.82-1.03-1.01-1.16-.22-3.9-.22-6.68-2.34-1.63-5.56-3.87-8.78-6.11,5.67,8.58,2.25,14.54-5.1,19.46-2.72-2.54-5.44-5.09-8.58-8.03,5.63-6.89,5.49-15.47,5.08-24.26,3.15,2.05,3.67,3.27,2.71,9.97-.53,3.65-1.97,7.16-3.11,11.11,1.4-.12,2.28-.2,2.87-.25,.35,2.85,.7,5.62,1.04,8.39l1.68-.12v-9.08c1.11,.55,2.07,1.03,3.26,1.61-1.1-4.66-3.09-9.2-2.96-13.67,.14-4.57,2.36-9.07,3.85-14.2-1.48,.87-2.57,1.51-3.5,2.05-.37-3.9-.72-7.54-.97-10.09,1.92,2.46,4.34,5.56,6.76,8.66,.62-.6,1.24-1.21,1.86-1.81-1.84,3.45-3.67,6.91-5.51,10.36,.2,.21,.39,.42,.59,.62,3.19-2.49,6.38-4.97,9.56-7.45-2.58-5.28-1.48-6.85,4.48-7.12,2.82-.13,5.63-.73,8.44-1.11,.06-.71,.11-1.41,.17-2.12-5.63-1.02-11.26-2.02-16.89-3.05-2.23-.41-4.58-.54-6.63-1.39-3.35-1.39-4.27-4.46-2.49-7.35,.92-1.5,3.57-1.91,5.44-2.81,.39,.86,.77,1.73,1.16,2.59-1.51,.71-3.02,1.43-5.41,2.56,1.07,.75,2.53,2.63,4.09,2.71,5.18,.29,5.16-3.92,5.42-7.87,9.05,1.31,12.18,9.79,19.32,15.59,1.42-3.48,3.03-6.36,3.57-9.43,.15-.88-2.81-2.31-4.34-3.49-.27-.37-.55-.75-.82-1.12h-.05Zm-4.12,34.33c-4.84,8.56-11.86,6.56-19.11,3.51-.03,.45-.06,.89-.08,1.34,8,4.27,16,8.54,24.71,13.18,1.62-2.99,3.18-5.88,4.75-8.76-.77,.4-1.55,.79-2.32,1.19-2.41-2.4-4.81-4.81-7.35-7.34,3.68-4.44,5.79-6.91,7.79-9.47,.45-.58,.89-1.64,.66-2.2-1.19-2.95-2.6-5.8-3.92-8.66-8.44,4.98-16.1,9.49-23.76,14.01l.67,1.4c2.46-1.04,4.89-2.19,7.41-3.08,1.29-.46,3.11-1.11,4.04-.55,2.25,1.36,4.12,3.36,6.52,5.43h0Zm-20.23,.46c0,.33-.02,.67-.03,1,3.33,.81,6.66,1.62,10.26,2.49v-6.13c-3.53,.91-6.88,1.77-10.23,2.64Z"/>
  <path d="M70.1,332.58c.27,.42,.44,.99,.82,1.23,7.52,4.83,8.15,9.13,2.31,16.17-.32,.38-.61,.78-.9,1.15,1.99,4.64,3.96,9.26,5.94,13.88-.58-.12-1.16-.24-1.74-.36-1.83,2.75-4.31,5.33-5.13,8.36-.27,.98,3.81,3.15,6.89,5.56-1.55,3.7-3.46,8.26-5.56,13.28,3.87,2.95,6.37,7.26,4.16,13.14-1.22,3.24-4.73,4.79-7.57,2.82-1.26-.87-1.71-3.13-2.1-4.86-.07-.32,1.9-1.11,2.92-1.68,.41,1.61,.82,3.21,1.47,5.76,1.02-.98,2.78-1.91,3.29-3.31,1.71-4.67-.91-7.87-4.6-11.03-5.23,5.89-9.81,12.52-16.28,15.35-2.15-3.5-3.44-7.15-6-9.04-1.08-.8-4.84,2.12-7.14,3.23-.46-3.05,1.35-5.1,5.84-5.78,5.81-.88,11.6-1.86,17.36-3.02,1.24-.25,2.3-1.43,3.44-2.18l-.42-1.72c-2.88,.21-5.8,.2-8.64,.69-3.78,.65-5.6-.17-5.31-4.54,.1-1.55-1.24-3.52-2.46-4.76-1.92-1.94-4.29-3.42-7.31-4.51,1.57,3.4,4.57,6.93,4.29,10.16-.26,2.92-4.11,5.52-6.46,8.36v-11.12c.9,.4,1.93,.87,3.14,1.42,0-.69,.16-1.24-.02-1.61-3.01-5.94-4.28-11.89-1.7-18.5,.55-1.4,2.78-4.55-1.55-6.3-1.18-.48-.18-6.47-.18-9.91,2.39,1.77,5.16,3.24,7.01,5.49,.74,.9-.23,3.66-1,5.3-1.07,2.27-3.09,4.72-.28,6.49,1.67,1.05,5.11,1.39,6.49,.35,4.51-3.43,6.93,.78,9.6,2.39,3.75,2.26,5.83,1.72,8.01-1.84,.85-1.4,2.64-2.21,4.48-3.67-1.48-3.06-3.09-6.38-4.71-9.73-7.61,4.31-14.6,8.28-22.05,12.5-.06-1.23-.29-2.27-.1-2.35,4.02-1.77,6.1-4.47,5.01-9.15-.09-.37,1.74-1.59,2.78-1.75,3.37-.51,6.79-.72,10.82-1.1-2.28-5.67-7.17-3.94-10.56-4.95-2.68-.8-5.85,.05-8.81,.19-4.59,.22-8.49-4.05-7.14-8.25,.46-1.44,2.05-2.9,3.48-3.5,.95-.4,2.6,.59,3.76,1.26,.32,.18,.26,1.99-.02,2.11-1.07,.46-2.3,.62-3.48,.72-.53,.04-1.1-.32-2.02-.62-.37,3.62,1.23,4.98,4.16,4.95,2.92-.03,4.89-4.21,4.25-9.29,9.38,1.25,13.24,9.57,19.66,14.95,3.9-2.14,4.68-6.64,3.56-9.61-.9-2.4-5.2-3.6-8.11-5.1-.95-.49-2.27-.19-3.42-.33-5.23-.65-7.18-2.92-7.1-8.1,.04-2.61,0-5.22,0-8.49,2.72,2.05,4.67,3.52,7.16,5.39-2.04,.44-3.37,.73-4.12,.89v6.51c1.2,.97,3.14,5.26,5.94-.6,.08-.16,2.02,.45,3,.89,1.06,.48,2.02,1.2,3.02,1.81l-.09-.1h.02Zm1.13,56.26c1.51-2.89,3.7-5.25,3.6-7.5-.08-1.8-2.95-3.47-4.57-5.2-.22-.24-.39-.53-.58-.8-2.66-3.72-7.38-3.98-9.6-.03-1.48,2.63-2.58,2.61-4.93,1.57-2.71-1.2-5.64-1.88-8.48-2.78-.19,.58-.38,1.15-.57,1.73,8.21,4.25,16.42,8.5,25.13,13.01h0Zm-17.07-14.4c.41-2.58,.7-4.43,.99-6.21-3.19,.87-6.71,1.82-10.24,2.78,.07,.36,.14,.73,.21,1.09,3.26,.84,6.51,1.68,9.04,2.34Z"/>
  <path d="M30.37,539.76c1.29-2.84,2.89-6.36,4.49-9.89-.21-.22-.41-.43-.62-.65-2.49,1.9-5.03,3.74-7.45,5.74-.51,.42-.99,1.56-.78,2.07,2.44,5.92-1.6,5.85-5.4,6.19-2.6,.23-5.18,.71-7.77,1.07-.02,.74-.04,1.48-.06,2.22,4.67,.71,9.37,1.31,14.01,2.16,3.19,.58,6.49,1.11,9.43,2.39,3.1,1.35,3.65,7.04,.95,8.78-1.25,.81-3.28,.57-4.93,.43-.29-.02-.43-1.9-.64-2.92h5.81c-1.22-1.83-2.24-4.71-3.3-4.73-5.34-.1-6.3,4.13-6.53,8.97-8.51-2.54-13.05-9.12-18.16-15.29-3.02,2.91-6.12,5.49-3.86,9.88,.92,1.8,2.79,3.1,4.46,4.89,.49-3.02,.76-4.67,1.03-6.31,1.11,.71,3.27,1.81,3.18,2.06-.63,1.71-1.81,4.62-2.68,4.57-2.81-.16-6.36-.61-8.16-2.43-2.93-2.96-2.76-7.6,.31-10.34,3.69-3.29,2.82-5.61,.66-9.1-1.64-2.65-2.18-5.99-3.21-9.03,.64,.11,1.28,.22,1.92,.33,1.79-2.56,4.09-4.94,5.04-7.78,.26-.76-3.58-2.92-5.53-4.44-.61,.03-1.21,.07-1.82,.1,1.7-4.71,3.4-9.41,5.31-14.7-4.48-1.87-4.79-6.77-4.18-11.93,.47-3.97,3.28-5.37,6.67-4.52,1.51,.38,2.96,2.43,3.64,4.06,.33,.8-1.01,2.5-1.91,3.52-.25,.29-2.25-.28-2.34-.7-.27-1.22,0-2.57,.11-3.86,.03-.42,.22-.82,.34-1.24-.41-.28-.81-.56-1.22-.84-1.02,1.62-2.62,3.13-2.93,4.88-.7,3.89,.97,7.02,4.56,9.33,5.82-5.18,9.79-12.38,16.29-15.39,2.03,3.64,3.2,7.16,5.58,9.32,1.04,.95,4.56-.89,7.62-1.63-1.3,2.94-3.68,3.9-6.98,4.49-6.66,1.19-13.24,2.91-19.84,4.41,.07,.73,.14,1.46,.21,2.19,2.68,0,5.36-.03,8.04,.01,2.11,.03,4.63-.49,6.18,.5,.88,.56,.16,3.66,.16,6.57,2.29,1.6,5.46,3.83,8.64,6.05,.27-.17,.55-.35,.82-.52-1.46-3.12-4.22-6.35-3.99-9.34,.21-2.6,3.8-4.93,6.04-7.55v9.41c-1.04-.19-1.95-.36-3.94-.73,6.57,9.62,5.54,18.54-.87,28.03,2.07-.45,2.7-.46,3.19-.73,.52-.28,.9-.81,1.55-1.42,.36,3.68,.69,6.97,1.08,11.01-2.75-2.56-5.07-4.72-8.21-7.63h-.01Zm-21.77-32.24c-1.18,2.02-2.73,3.98-3.47,6.22-.39,1.16,.21,3.33,1.13,4.15,5.78,5.11,6.03,8.21,.21,13.12-4.11,3.47,.07,5.86,.9,8.52,.94,3,3.27,1.94,5.24,.78,5.24-3.06,10.51-6.08,15.72-9.19,1.23-.73,2.27-1.79,3.4-2.69-.29-.46-.58-.91-.87-1.37-2.14,1-4.25,2.07-6.43,2.98-1.17,.49-2.9,1.37-3.63,.9-2.45-1.59-4.56-3.7-7.06-5.83,2.45-2.3,4.79-4.67,7.37-6.74,.48-.39,1.9,.4,2.88,.68,2.57,.74,5.14,1.5,7.7,2.25,.15-.52,.29-1.04,.44-1.56-7.64-3.97-15.29-7.93-23.55-12.22h.02Zm16.37,14.3c.12,1.77,.22,3.32,.34,5.07,3.44-.75,6.51-1.41,9.59-2.08,0-.32,0-.63,0-.95-3.24-.67-6.48-1.33-9.92-2.04Z"/>
  <path d="M70.85,557.69c3.06-.88,4.78-3.61,3.68-7.22-.74-2.43-2.67-4.49-3.92-6.48-6.27,5.81-11.82,10.96-17.37,16.1-.43-.4-.86-.8-1.29-1.21,.47-.77,.94-1.53,1.45-2.35-3.31-3.31-5.07-12.35-12.4-3.29-.13-4.1,.58-4.6,5.04-5.54,6.32-1.33,12.6-2.9,18.88-4.4,.73-.17,1.39-.62,2.09-.93-.03-.46-.06-.93-.1-1.39-2.67,0-5.34,.08-8-.03-2.02-.08-4.62,.28-5.86-.81-.95-.84-.19-3.66-.19-6.58-2.24-1.38-5.44-3.34-8.63-5.3-.32,.32-.64,.63-.96,.95,.97,1.56,2.06,3.06,2.88,4.7,.63,1.27,1.72,3.28,1.22,4-1.97,2.89-4.48,5.4-6.98,8.28v-11.28c.85,.52,1.96,1.21,3.07,1.89,.51-.07,1.02-.13,1.53-.2-7.01-9.51-4.91-18.8,.17-28-.55-.3-1.09-.6-1.64-.89-.67,1.34-1.34,2.69-2.01,4.03-.41-.22-.82-.45-1.23-.67v-11.47c2.37,1.98,4.93,3.93,7.2,6.17,.45,.44,0,2.11-.39,3.06-1.11,2.66-2.41,5.24-3.25,8.08,4.15-1.92,7.93-3.83,8.08-9.33,.03-1.24,2.09-3.1,3.54-3.5,3.4-.95,6.99-1.2,10.5-1.73,.13-.62,.26-1.24,.4-1.87-3.25-1-6.44-2.38-9.76-2.9-4.35-.68-8.85-.33-13.19-1.05-3.75-.62-5.54-6.16-2.94-9.07,1.09-1.22,3.41-1.32,5.17-1.93,.37,1.14,1.34,3.01,1.01,3.28-1.19,.99-2.81,1.44-5.45,2.62,1.39,.98,2.81,2.79,4.3,2.86,2.84,.13,4.93-4.68,5.1-10.15,3.4,2.51,6.86,4.94,10.17,7.56,1.54,1.22,2.66,2.98,4.21,4.19,1.65,1.29,3.58,2.21,5.38,3.3,1.11-2.65,3.02-5.29,3.04-7.94,.01-1.67-2.81-3.35-4.37-5.03-.46,.4-.92,.81-1.38,1.21,.64,1.15,1.29,2.31,2.42,4.33-1.85,.27-3.8,1.06-4.28,.52-1.1-1.24-2.45-4.1-1.98-4.57,1.55-1.56,3.91-3.34,5.86-3.22,3.61,.22,6.78,2.52,6.68,6.61-.06,2.64-1.4,5.31-2.46,7.84-.48,1.16-1.68,2-2.45,2.87,1.77,3.78,3.7,7.39,5.07,11.2,.43,1.19-.36,3.17-1.17,4.41-1.4,2.12-4.38,3.86-4.54,5.92-.11,1.48,3.29,3.24,5.64,4.59,1.26,5.3-1.5,9.67-5.07,14.25,4.43,2.87,6.97,6.82,5.81,12.39-.77,3.69-3.27,4.93-6.32,3.14h0v-.02Zm-1.42-53.05c-8.1,4.79-15.82,9.36-23.54,13.92,.25,.49,.5,.97,.75,1.46,2.5-1.1,4.99-2.2,7.5-3.29,2.15-.93,9.62,2.29,9.91,4.46,.12,.94-.46,2.41-1.21,2.95-4.03,2.9-8.03,6.25-13.36,2.31-1.05-.78-2.73-.69-4.12-1,1.33,1.93,3.06,3.01,4.86,3.93,5.12,2.6,10.76,4.48,15.28,7.88,4.05,3.05,5.54,.94,7.28-1.82,.93-1.47,1.28-3.32,1.95-5.16-1.41-.78-2.61-1.31-3.67-2.05-3.91-2.77-4.47-9.27-.3-11.3,4.82-2.34,2.81-4.51,1.25-7.28-.88-1.57-1.66-3.21-2.59-5.02h0Zm-26.14,17.44c0,.31-.02,.63-.03,.94,3.67,.82,7.34,1.64,11.03,2.47,.1-2.16,.18-4.11,.27-5.97-3.92,.89-7.6,1.73-11.27,2.56Z"/>
  <path d="M25.49,610.19c.35,1.26,.8,2.5,1.01,3.78,.47,2.81,.16,4.85-3.58,4.89-2.95,.03-5.9,.89-8.84,2.14,4.64,3.54,9.69,4.39,15.15,4.17,4.08-.17,8.57-.29,10.09,4.84,.46,1.56,.36,4.13-.6,5.07-1.26,1.23-3.62,1.4-5.55,1.71-.2,.03-1.24-2.93-1.03-3.06,1.42-.87,3.08-1.35,5.63-2.33,.45-2.22-1.97-3.34-4.46-3.06-5.49,.6-4.87,4.73-3.68,8.98-10.03-.66-13-9.72-19.52-14.58-3.42,1.04-4.67,3.88-4.22,7.45,.19,1.55,1.35,2.98,1.72,3.74,2.38-1.67,3.83-2.69,5.28-3.71,.87,1.45,2.72,3.26,2.37,4.27-.52,1.48-2.68,3.39-4.05,3.32-2.45-.13-5.74-.91-7.05-2.66-2.56-3.43-1.73-7.59,.68-11.14,.81-1.2,2.09-2.07,2.87-2.81-1.69-3.47-3.56-6.7-4.86-10.15-.94-2.51-2.16-5.44,2.59-6.26,1.36-.23,3.54-3.92,3.07-4.93-1.04-2.2-3.54-3.7-5.45-5.49l-2,.17c1.73-4.59,3.45-9.18,5.45-14.49-4.72-2.22-5.88-7.02-4.54-12.35,.41-1.62,2.46-3.57,4.08-3.94,1.7-.38,4.1,.56,5.56,1.72,.75,.59,.61,3.25-.06,4.41-.49,.85-2.52,.79-3.87,1.14-.41-1.81-.81-3.63-1.19-5.3-4.2,2.43-3.64,7.1,2.14,12.68,5.54-5.29,11.11-10.6,16.67-15.91,1.75,3.81,2.72,6.66,4.34,9.08,.58,.87,2.79,1.14,4.12,.9,3.42-.62,3.9-2.99,2.92-5.91-1.56,.97-2.95,1.98-4.48,2.62-.2,.08-1.57-1.62-1.65-2.56-.08-.95,.49-2.34,1.25-2.91,2.41-1.8,6.35,.05,6.89,3.07,.91,5.14-1.95,7.78-7.53,8.55-6.52,.91-12.91,2.77-19.36,4.22,.11,.86,.22,1.72,.32,2.58,2.84-.15,5.69-.44,8.53-.4,1.83,.03,4.3-.03,5.28,1.05,.8,.9-.17,3.42-.39,5.49,2.36,2.09,5.16,4.58,7.96,7.07l.12-.16c-8.38-3.82-16.76-7.65-25.47-11.62-.87,1.73-2.15,3.4-2.5,5.25-.3,1.58-.1,4.37,.85,4.91,5.71,3.3,5.53,7.8,1.1,13.12-.9,1.08-1.65,3.02-1.31,4.24,.67,2.44,2.14,4.65,2.94,6.27,5.66-2.43,11.06-4.74,16.46-7.06l-.18-.12h-.02Z"/>
  <path d="M33.68,377.69c-1.77,1.68-3.64,3.26-5.27,5.07-.89,.99-2.07,2.48-1.89,3.53,.74,4.36-.89,5.6-5.05,5.43-2.98-.12-6,.78-9,1.23-.07,.67-.13,1.34-.2,2.02,5.92,1.13,11.84,2.28,17.76,3.39,2.05,.38,4.33,.23,6.13,1.1,3.5,1.7,3.9,5.22,2.19,8.07-.95,1.57-3.92,1.9-6.24,2.14-.13-4.79,1.74-5.01,5.5-3.17-.45-1.52-.47-3.61-1.48-4.4-1.05-.82-3.96-1.06-4.5-.35-1.76,2.31-2.8,5.16-4.46,8.5-4.79-.76-8.15-5.59-12.23-9.49-1.97-1.88-4.91-4.94-6.6-4.47-4.16,1.16-2.41,5.55-2.24,8.62,.19,3.28,2.45,4.25,6.42,2.23-1.39-.4-2.78-.8-4.17-1.19,.32-.65,.64-1.31,.96-1.96,1.36-.17,3.12-.92,3.98-.34,.94,.64,1.61,2.62,1.39,3.83-.21,1.15-1.56,2.59-2.71,2.96-5.39,1.75-10.75-3.4-9.17-8.97,.82-2.9,2.7-5.49,4.24-8.49-1.06-2.3-2.36-5.1-3.64-7.91-1.54-3.39-2.93-6.53,2.58-7.86,1.16-.28,2.49-2.95,2.41-4.46-.07-1.4-1.62-3.22-3-3.98-3.57-1.98-4.67-4.84-2.51-8.57,1.31-2.26,2.92-4.35,4.61-6.85-4.57-2.92-6.33-7.03-5.58-12.29,.64-4.43,4.55-6.45,8.23-4.27,2.38,1.41,3.64,3.24,1.68,5.54-.71,.83-2.79,.47-4.25,.65,.23-1.67,.45-3.34,.82-6.05-1.56,1.42-3.88,2.5-4.26,4.06-1.16,4.75,1.22,8.17,5,10.46,5.58-5.58,10.95-10.94,15.56-15.54,2.47,3.83,4.03,7.1,6.45,9.49,.68,.67,4.19-.86,5.77-2.16,.73-.6-.06-3.08-.21-5.56-1.91,2.42-2.87,3.63-3.83,4.84-.84-.89-2.44-1.86-2.35-2.64,.13-1.15,1.57-3.13,2.26-3.05,1.89,.22,4.62,.84,5.31,2.19,2.04,4.02-.55,7.87-5.03,8.79-7.43,1.52-14.83,3.22-22.24,4.85,.05,.73,.09,1.47,.14,2.2,3.09,0,6.21,.32,9.25-.07,6.71-.86,7.31-.23,4.8,6.53,3.01,2,6.09,4.04,9.18,6.09-.21,.39-.43,.78-.64,1.16-8.16-4.07-16.32-8.15-24.77-12.37-.76,1.13-1.76,2.63-2.78,4.12-1.88,2.75-2.66,4.81,1.23,7.04,4.4,2.52,4.78,8.8,.6,11.25-3.96,2.33-2.91,4.31-1.3,7.11,.89,1.56,1.54,3.26,2.43,5.18,6.13-3.47,11.98-6.87,17.91-10.1,2.2-1.2,4.61-2.01,6.92-2.99l-.13-.13h.02Z"/>
  <path d="M47.42,604.23c6.53,2.99,13.3,5.55,19.51,9.11,4.29,2.46,5.4-.92,7.01-2.88,1.72-2.1,1.47-4.37-1.3-6.2-4.91-3.23-5.34-6.74-1.85-11.36,4.05-5.37,3.85-7.19-1.52-12.72-7.22,4.36-14.48,8.73-21.74,13.11-.22-.25-.43-.5-.65-.75,2.21-2.09,4.42-4.19,6.67-6.32-1.83-5.94-1.7-6.07,4.41-6.78,2.67-.31,5.29-.97,9.29-1.74-7.91-5.48-15.81-4.56-23.45-5.7,4.75-2.2,8.71-4.33,6.44-10.76,7.36,1.15,11.21,6.36,15.66,10.76,1.32,1.3,3.2,2.02,4.82,3,1.09-2.78,2.71-5.51,3.01-8.38,.13-1.29-2.39-2.86-3.7-4.31-.41,.33-.81,.67-1.22,1,.39,1.32,.77,2.64,1.41,4.81-1.99-.17-4.57,.02-4.7-.46-.57-2.16-.46-4.51-.6-7.01,4.85,.06,8.97-.73,11.14,3.94,2.67,5.75-.97,9.37-4.22,12.58,1.41,3.24,2.57,6.12,3.91,8.9,1.55,3.23,2.73,5.83-2.06,7.76-3.27,1.31-3.15,5.92-.34,7.74,4.58,2.96,5.21,6.85,1.84,11.4-1.07,1.45-2.2,2.86-3.71,4.81,6.31,3.2,6.05,8.6,4.43,14.02-.47,1.58-2.57,3.38-4.19,3.69-1.5,.29-4.04-.84-4.85-2.14-.69-1.11,.26-3.43,.87-5.07,.2-.53,2.12-1.07,2.43-.76,1.21,1.19,2.08,2.72,3.16,4.23,1.72-4.39,1.95-8.62-2.31-12.3-5.88,5.7-11.63,11.28-18.05,17.5-1.6-12.51-2.21-10.68-10.01-12.25,8.43-2.02,16.47-3.94,24.52-5.87-.01-.67-.02-1.35-.03-2.02-1.51-.42-3.02-1.11-4.54-1.18-1.44-.07-2.9,.77-4.35,.76-1.81-.01-3.96,0-5.26-.96-.67-.49,.18-3.08,.42-5.43-1.64-1.56-3.92-3.73-6.2-5.9l-.08,.1-.02,.03Z"/>
  <path d="M33.48,595.35c3.78-.67,1.45-3,.97-4.45-.69-2.12-3.23-4.63-2.66-5.98,1.28-3.01,3.99-5.4,6.48-8.5v11.7c-1.22-.95-2.17-1.69-3.92-3.07,1.72,5.37,4.23,9.8,4.27,14.26,.04,4.36-2.44,8.74-4.01,13.74,1.46-.51,2.53-.89,3.39-1.2,.46,3.74,.93,7.54,1.4,11.39-2.78-2.13-5.63-3.95-7.93-6.31-.69-.71-.18-3.09,.38-4.44,.97-2.34,2.41-4.48,4.12-7.53-4.11,2.05-7.29,3.63-10.47,5.22l.18,.12c1.92-2.6,3.84-5.2,5.18-7.01-2.23,.92-5.74,2.37-8.85,3.65-3.53-2.7-6.75-5.16-10.1-7.73,3.09-1.04,6.55-1.15,7.48-2.75,1.85-3.18,3.08-3.56,5.98-1.54,1.66,1.15,3.88,1.62,5.92,1.98,.65,.12,1.54-1.11,2.32-1.72l-.12,.16h-.01Zm-8.42,7.63c3.56-.94,6.64-1.75,9.73-2.56-.06-.28-.12-.56-.17-.85-3.04-.74-6.08-1.47-9.2-2.23-.14,2.16-.23,3.7-.36,5.63h0Z"/>
  <path d="M33.81,377.81c-1.01-3.62-3.42-1.53-5.12-1.05-2.31,.64-4.96,3.12-6.6,2.5-3.27-1.24-5.96-4.07-9.58-6.75,3.71-1.25,7.56-.95,8.58-5.09,.08-.32,2.43-.45,3.53-.07,2.61,.89,5.04,2.33,7.67,3.11,.95,.28,2.66-.37,3.3-1.18,.55-.7,.43-2.39,0-3.35-.81-1.79-2.23-3.29-3.1-5.06-.53-1.09-1.13-2.93-.62-3.63,1.83-2.53,4.13-4.72,6.12-6.9v9.88c-.86-.43-1.71-.85-2.83-1.41,1.18,5.03,3.34,9.86,3.15,14.6-.19,4.66-2.75,9.21-4.67,15.02,2.15-1.6,3.34-2.49,4.25-3.16,.42,3.53,.86,7.18,1.48,12.32-1.75-2.11-2.69-3.22-3.6-4.36-.55-.7-1.03-2.04-1.58-2.06-5.5-.22-3.12-3.31-2.08-5.75,.84-1.96,2.1-3.73,2.9-5.71,.17-.42-.85-1.34-1.32-2.02l.13,.13h-.01Zm-15.79-3.35h17.66c0-.73,0-1.47-.02-2.2-5.48-.44-11.02-4.38-17.64,2.2Z"/>
  <path d="M70.19,332.68c3.38-6.71-1.33-14.66-9.89-16.13,.47-1.16,.91-2.23,1.68-4.1-2.43,.4-4.22,.7-6.63,1.1,.14-2.66,.28-5.31,.45-8.6,1.78,.64,2.86,1.03,4.36,1.57-1.25,1.17-2.08,1.95-3.46,3.24,6.08,2.1,12.33-5.72,17.11,2.21,.34-.46,.68-.92,1.02-1.39-1.67-2.97-3.35-5.95-5.02-8.92v.02c2,.69,4,1.38,6.15,2.12-1.08,13.21-1.28,13.6-6.74,11.62,1.08-.68,1.99-1.25,2.9-1.83-.35-.48-.69-.96-1.04-1.44-1.56,1.21-3.13,2.41-5.61,4.32,2.73,1.41,4.46,3.11,6.02,2.96,6.18-.6,4.58,4.35,4.49,6.93-.1,3.03-1.21,6.78-5.88,6.2l.09,.1v.02Z"/>
  <path d="M22.3,320.84c1.47,5.21,1.18,9.92-3.32,13.07-3.04,2.13-14.7,1.17-15.79-1.71-1.48-3.89-.94-8.56-1.33-13.8,3.18,2.03,5,3.19,7.36,4.69-1.86,.76-3.28,1.35-5.39,2.21,1.29,1.13,2.02,1.78,2.93,2.57-.79,.73-1.56,1.44-3.22,2.96,2.81,1.02,4.92,1.79,6.96,2.53,1.03-1.27,1.87-2.32,2.71-3.36,.83,1.04,1.65,2.08,2.54,3.19,5.17-2.63,5.42-7.47,.35-11.69-2.66-2.22-5.11-4.69-7.66-7.05,.17-.47,.34-.93,.52-1.4-2.15,.71-4.29,1.41-6.4,2.11-1.55-8.73-1.08-10.38,3.74-11.34-.24,2.13-.47,4.12-.77,6.73h5.68c-.43,6,1.73,8.11,11.11,10.28h-.02Z"/>
  <path d="M47.5,604.13c-1.22-.27-2.44-.53-4.84-1.06,4.54,6.15,4.84,11.9-.83,17.49v-8.47c1.01,.25,2.15,.53,3.18,.78-1.47-4.78-2.85-9.25-4.23-13.75,5.28,.78,9.41,1.39,13.74,2.04,.08-1.81,.17-3.8,.26-5.96-1.72,.33-3.42,.65-5.13,.98-.11-.28-.21-.56-.32-.83,2.71-1.3,5.41-2.59,7.7-3.69,3.11,2.23,5.7,4.08,8.37,5.99-2.71,2.4-4.79,4.48-7.14,6.17-.61,.44-2.08-.25-3.13-.52-2.78-.72-5.55-1.5-8.96-2.42,.59,1.61,.91,2.49,1.24,3.36l.08-.1h.01Z"/>
  <path d="M46.52,309.86c-.91-1.92-1.82-3.84-2.8-5.92,4.18-.14,4.36,3.31,4.57,5.94,.28,3.56-3.62,6.5-7.87,6.06,1.49-1.01,2.65-1.81,3.82-2.6-.12-.31-.23-.62-.35-.93-1.5,.32-3,.64-4.86,1.04-.4-.82-.91-1.83-1.52-3.06-2.44,4.16-.42,7.43,5.25,9,2.44,.68,3.79,.97,4.63,4.5,1.09,4.53-1.29,6.01-3.39,8.6,1.67-6.41-1.22-10.32-6.34-13.2-.93-.53-1.93-1.63-2.14-2.62-.44-2.11-1.17-4.78-.27-6.35,.67-1.18,3.7-1.37,5.65-1.32,1.59,.04,3.15,1.11,4.73,1.72,0,0,.89-.86,.89-.86Z"/>
  <path d="M32.87,262.31c-4.61,.34-9.36,.69-14.1,1.04,.13,.78,.25,1.56,.38,2.35,2.23-.54,4.47-1.09,6.61-1.61-.08,1.63,.3,3.64-.43,5.06-.52,1.02-3.1,2.12-3.8,1.67-2.76-1.77-5.14-4.15-7.41-6.09,2.64-2.3,4.96-4.45,7.45-6.39,.61-.48,1.92-.6,2.65-.27,3.03,1.33,5.95,2.9,8.64,4.24h0Z"/>
  <path d="M26.98,184.85c-1.14,3.01-2.03,5.35-3.08,8.12,1.11-.13,2.07-.24,3.03-.35,.11,.28,.22,.56,.33,.85-1.75,.89-3.49,1.77-4.73,2.4-3.14-2.13-5.71-3.87-8.28-5.61,.07-.41,.14-.82,.21-1.24,5.02,.76,6.09-10.77,12.53-4.17h0Z"/>
  <path d="M47.16,597.05h-6.08c.87-2.6,1.56-4.72,2.3-6.82,.74-2.09,1.54-4.16,1.48-6.76-1.04,.8-2.08,1.61-3.09,2.39-.3-3.58-.59-7.03-.89-10.48,.33-.1,.66-.2,.98-.3,.48,1.05,.94,2.12,1.45,3.15,.39,.78,.82,2.17,1.27,2.19,6.98,.27,3.42,3.59,1.88,6.34-1.75,3.12-4.09,6.19,.7,10.29h0Z"/>
  <path d="M29.97,330.1c2.75,5.77,5.5,2.15,8.74-1.37,.54,2.32,.89,3.78,1.57,6.7-4.14-1-8.88-.74-10.43-2.86-2.04-2.79-1.56-7.45-2.35-12.48,3.13,1.28,4.6,1.87,6.09,2.48-1.32,2.73-2.45,5.07-3.63,7.53h0Z"/>
  <path d="M44,441.05c.2-2.66,.4-5.31,.64-8.46-1.02,.53-2.12,1.11-3.03,1.59-.54-3.44-1.09-6.92-1.8-11.4,1.51,1.07,2.84,1.51,3.01,2.23,.58,2.4,1.37,4.16,4.24,4.31,.32,.02,1.05,2.55,.67,3.57-1.03,2.77-2.54,5.36-3.84,8.05,.02,.02,.11,.11,.11,.11Z"/>
  <path d="M34.94,435.28c.86,2.23,1.72,4.45,2.58,6.67l-.8,.42c-1.57-2.52-3.21-5-4.65-7.59-.3-.54-.17-1.75,.24-2.22,1.77-1.99,3.73-3.82,5.94-6.04-.69,3.23,1.35,7.08-3.32,8.75h.01Z"/>
  <path d="M35.42,254.03c-4.59-2.84-4.62-4.02-1.41-6.72,1.56-1.31,2.42-3.48,4.05-5.94v10.62c-.73-.53-1.61-1.16-3.03-2.19,.16,1.72,.26,2.81,.39,4.23h0Z"/>
  <path d="M40.74,2.43c-2.38,2.13-3.26,3.13-4.34,3.83-1.12,.73-2.43,1.16-3.66,1.72-.48-1.11-1.55-2.38-1.31-3.3,.34-1.31,1.5-3.18,2.56-3.36,1.76-.31,3.72,.53,6.76,1.11h-.01Z"/>
  <path d="M41.55,633.11c2.17-1.21,4.23-2.37,6.3-3.52,.12,1.59,.95,3.75,.22,4.65-1.66,2.06-4.03,2.74-6.52-1.13Z"/>
  <path d="M64.58,221.63c1.8-1.3,3.5-2.83,5.47-3.78,.61-.29,1.97,.99,2.99,1.55-.75,.88-1.33,2.14-2.28,2.56-1.55,.68-3.33,.8-5.01,1.15-.39-.49-.78-.99-1.16-1.48h-.01Z"/>
  <path d="M69.23,228.46c.27,.37,.55,.75,.82,1.12-.62,1.44-1.23,2.89-1.85,4.33-1.04-.54-2.8-.92-2.96-1.65-.31-1.43,.28-3.06,.49-4.61,1.17,.27,2.33,.54,3.5,.81Z"/>
  <path d="M42.12,558.1c1.9-1.31,.36-6.05,4.83-4.57,.72,.24,1.53,3.05,1.12,3.45-1.3,1.28-3.16,1.99-4.8,2.92-.38-.6-.77-1.21-1.15-1.81h0Z"/>
  <path d="M70.86,557.69c-3.34,1.41-5.24,.6-4.27-3.3,.27-1.1,1.83-2.19,3.03-2.63,.59-.21,2.38,1.02,2.43,1.7,.08,.92-1.01,1.93-1.57,2.91-.2,.35-.31,.74-.46,1.12,.28,.07,.55,.13,.83,.2h0Z"/>
  <path d="M16.98,316.24c7.3-7.27,4.9-6.38,.96-12.44,4.62-1.22,4.73,2.08,5,4.98,.44,4.69-1.37,6.88-5.96,7.45h0Z"/>
  <path d="M40.67,479.45c1.11-.21,2.24-.34,3.33-.64,1.09-.31,2.14-1.05,3.21-1.04,.4,0,1.32,1.79,1.08,2.37-.44,1.06-1.7,2.67-2.4,2.57-1.99-.29-3.87-1.34-5.8-2.08l.59-1.18h-.01Z"/>
  <path d="M68.74,483.45c-.51-1.82-2.03-4.29-1.36-5.33,1.98-3.05,4.48-3.13,5.12,1.12,.16,1.06-1.44,2.4-2.23,3.6-.51,.2-1.02,.4-1.53,.6h0Z"/>
  <path d="M57.38,479.46c-.9,1.72-1.8,3.45-2.7,5.17-.69-.54-1.39-1.07-2.08-1.61-.55-2.48-1.1-4.95-1.77-7.96,2.61,1.77,4.64,3.14,6.67,4.51l-.11-.12h0Z"/>
  <path d="M37.47,490.05c-2.04,.89-4.09,1.78-6.13,2.66-.04-1.3-.46-3.58-.05-3.74,1.77-.71,3.79-.8,5.72-1.12,.15,.73,.31,1.46,.46,2.2h0Z"/>
  <path d="M69.8,301.67c-1.21,1.72-2.43,3.45-3.34,4.75-2.17-1.48-4.02-2.73-6.95-4.72h10.3v-.03h0Z"/>
  <path d="M42.94,406.01c1.38-1.35,2.77-2.71,4.15-4.06,.57,1.08,1.89,2.69,1.58,3.13-.93,1.32-2.5,2.19-3.83,3.24-.63-.77-1.27-1.54-1.9-2.31Z"/>
  <path d="M5.95,81.5c2.94-1.38,4.43-2.07,6.86-3.21,0,1.58,.28,3.16-.12,4.54-.19,.66-1.84,1.46-2.55,1.26-1.33-.39-2.47-1.47-4.19-2.58h0Z"/>
  <path d="M32.74,312.8c-1.23,.25-2.47,.5-4.24,.86-.15-3.03-.28-5.56-.41-8.09,.63-.04,1.27-.09,1.9-.13,.11,1.43,.21,2.85,.37,4.97,.2,.09,1.25,.56,2.31,1.02,.02,.45,.04,.91,.06,1.36h0Z"/>
  <path d="M69.94,341.48c-1.55-.19-3.46,.08-4.54-.74-.75-.57-.38-2.65-.51-4.06l1.4-.34c1.34,1.04,2.69,2.09,4.03,3.13-.13,.67-.26,1.34-.38,2h0Z"/>
  <path d="M44.75,567.17c-1.03-1.5-2.06-3-3.09-4.5,1.62-.08,3.38-.55,4.79-.04,.58,.21,.4,2.54,.57,3.91-.76,.21-1.52,.42-2.28,.63h0Z"/>
  <path d="M67.92,151.63c.54,2.06,1.09,4.13,1.63,6.19-1.29-.14-3.57-.02-3.69-.48-.44-1.69-.18-3.58-.18-5.39,.74-.11,1.49-.22,2.23-.32h.01Z"/>
</svg>